#N canvas 272 19 467 606 10;
#X obj 233 82 image 27.7.gif 0;
#X obj 154 281 hsl 128 55 0 0.2 0 1 empty empty empty -2 -8 0 10 -191407
-13330 -1 12700 1;
#X obj 154 241 hsl 128 34 0 0.1 0 1 empty empty empty -2 -8 0 10 -228856
-13330 -1 12700 1;
#X obj 154 341 hsl 128 83 0 0.34 0 1 empty empty empty -2 -8 0 10 -128992
-13330 -1 11050 1;
#X text 256 434 << generative instrument;
#X text 291 257 << volum [0 - 0.1];
#X text 290 302 << volum [0 - 0.2];
#X text 289 371 << volum [0 - 0.3];
#X msg 61 476 OHPI27.7 Pd Generative App based on MultiVerses and Higher
dimensions of SpaceTime // Ones Hàptiques Xavier Manzanares 2015+16
;
#N canvas 0 54 1366 713 27.7hz.ms~~~~ 1;
#X obj 1141 33 image 13D.gif 0;
#X msg 95 403 166.2;
#X obj 129 374 t b f;
#X obj 100 329 hradio 15 1 0 8 empty empty empty 0 -8 0 10 -262144
-1 -1 0;
#X obj 141 420 *;
#X obj 141 443 nbx 5 14 -1e+37 1e+37 0 0 empty empty empty 0 -8 0 10
-262144 -1 -1 166.2 256 0;
#X obj 58 298 metro;
#X obj 100 298 random 5;
#X obj 129 351 + 1;
#X obj 20 283 tgl 15 1 empty empty empty 17 7 0 10 -262144 -1 -1 1
1;
#X obj 88 272 hsl 128 15 0 404 0 1 empty empty empty -2 -8 0 10 -262144
-1 -1 0 1;
#X obj 227 440 osc~;
#X obj 281 440 *~;
#X obj 284 407 hsl 128 15 0 0.2 0 1 empty empty empty -2 -8 0 10 -262144
-1 -1 0 1;
#X obj 381 436 s~ tone;
#X obj 77 225 r value;
#X obj 1164 318 r~ tone;
#X obj 43 255 spigot;
#X obj 142 240 tgl 15 0 empty empty empty 17 7 0 10 -262144 -1 -1 0
1;
#X msg 535 474 27.7;
#X obj 569 445 t b f;
#X obj 544 396 hradio 15 1 0 13 empty empty empty 0 -8 0 10 -262144
-1 -1 6;
#X obj 581 491 *;
#X obj 581 514 nbx 5 14 -1e+37 1e+37 0 0 empty empty empty 0 -8 0 10
-262144 -1 -1 193.9 256 0;
#X obj 512 313 random 5;
#X obj 569 422 + 1;
#X obj 391 298 tgl 15 1 empty empty empty 17 7 0 10 -262144 -1 -1 1
1;
#X obj 500 287 hsl 128 15 0 404 0 1 empty empty empty -2 -8 0 10 -262144
-1 -1 12700 1;
#X obj 721 511 *~;
#X obj 745 437 hsl 128 15 0 0.2 0 1 empty empty empty -2 -8 0 10 -262144
-1 -1 3175 1;
#X obj 581 538 s value;
#X obj 489 240 r value;
#X obj 455 270 spigot;
#X obj 554 255 tgl 15 0 empty empty empty 17 7 0 10 -262144 -1 -1 0
1;
#X obj 809 514 s~ tone2;
#X obj 1233 285 r~ tone2;
#X obj 534 330 sel 0 1 2 3 4;
#X msg 517 366 3;
#X msg 548 366 4;
#X msg 586 366 6;
#X msg 617 366 9;
#X msg 651 366 12;
#X obj 655 452 t b f;
#X obj 667 475 /;
#X obj 655 428 hradio 15 1 1 4 empty empty empty 0 -8 0 10 -262144
-1 -1 1;
#X obj 1299 627 freeverb~;
#X msg 993 107 roomsize \$1;
#X msg 993 152 damping \$1;
#X msg 993 196 width \$1;
#X msg 993 240 wet \$1;
#X msg 993 284 dry \$1;
#X msg 923 285 freeze \$1;
#X obj 923 266 tgl 15 0 empty empty empty 0 -6 0 8 -262144 -1 -1 0
1;
#X obj 1005 261 hsl 60 18 0 1 0 1 empty empty dry 2 9 1 12 -262144
-1 -1 5900 0;
#X obj 1005 217 hsl 60 18 0 1 0 1 empty empty wet 2 9 1 12 -191407
-13330 -13330 900 0;
#X obj 1005 173 hsl 60 18 0 1 0 1 empty empty width 2 9 1 12 -228856
-1 -33289 5900 0;
#X obj 1005 129 hsl 60 18 0 2 0 1 empty empty damping 2 9 1 12 -228856
-1 -33289 0 0;
#X obj 1005 84 hsl 60 18 0.11 1.1 0 1 empty empty roomsize 2 9 1 12
-228856 -1 -66577 5300 0;
#X obj 385 656 nbx 5 14 -1e+37 1e+37 0 0 empty empty empty 0 -8 0 10
-262144 -1 -1 27.7 256 0;
#X obj 525 653 *~;
#X obj 545 610 hsl 128 15 0 0.1 0 1 empty empty empty -2 -8 0 10 -262144
-1 -1 7997 1;
#X obj 459 605 t b f;
#X obj 459 581 hradio 15 1 1 13 empty empty empty 0 -8 0 10 -262144
-1 -1 2;
#X obj 577 653 s~ tone3;
#X obj 471 628 *;
#X msg 101 638 27.7;
#X obj 135 609 t b f;
#X obj 110 560 hradio 15 1 1 12 empty empty empty 0 -8 0 10 -262144
-1 -1 0;
#X obj 147 655 *;
#X obj 106 533 random 5;
#X obj 135 586 + 1;
#X obj 38 516 metro;
#X obj 0 501 tgl 15 1 empty empty empty 17 7 0 10 -262144 -1 -1 1 1
;
#X obj 68 490 hsl 128 15 0 404 0 1 empty empty empty -2 -8 0 10 -262144
-1 -1 3483 1;
#X obj 57 443 r value;
#X obj 23 473 spigot;
#X obj 122 458 tgl 15 0 empty empty empty 17 7 0 10 -262144 -1 -1 0
1;
#X obj 408 564 spigot;
#X obj 507 549 tgl 15 1 empty empty empty 17 7 0 10 -262144 -1 -1 0
1;
#X obj 2027 1002 *~;
#X obj 257 1112 hsl 128 55 0 0.7 0 1 empty empty empty -2 -8 0 10 -262144
-1 -1 5367 1;
#X obj 1999 1001 *~;
#X obj 766 411 autoscale 0 0.15;
#X obj 777 378 autoscale 0 0.15;
#X obj 735 489 line~;
#X msg 670 204 27.7;
#X obj 704 175 t b f;
#X obj 186 -157 hradio 15 1 0 14 empty empty empty 0 -8 0 10 -262144
-1 -1 4;
#X obj 716 221 *;
#X obj 716 244 nbx 5 14 -1e+37 1e+37 0 0 empty empty empty 0 -8 0 10
-262144 -1 -1 110.8 256 0;
#X msg 210 -195 3;
#X msg 241 -195 4;
#X msg 279 -195 6;
#X msg 310 -195 9;
#X msg 344 -195 12;
#X obj 714 264 s time;
#X obj 632 260 r time;
#X obj 214 473 r time;
#X obj 704 152 + 0;
#X msg 178 -195 0;
#X obj 334 -142 s Dims;
#X obj 656 564 r Dims;
#X obj 676 493 nbx 5 14 -1e+37 1e+37 0 0 empty empty empty 0 -8 0 10
-262144 -1 -1 193.9 256 0;
#X msg 784 714 27.7;
#X obj 818 685 t b f;
#X obj 830 731 *;
#X obj 830 754 nbx 5 14 -1e+37 1e+37 0 0 empty empty empty 0 -8 0 10
-262144 -1 -1 55.4 256 0;
#X obj 1457 319 r~ bsss;
#X obj 876 778 *~;
#X obj 890 756 line~;
#X obj 982 781 s~ bsss;
#X obj 833 776 osc~;
#X obj 818 662 + 1;
#X obj 817 642 hradio 15 1 1 4 empty empty empty 0 -8 0 10 -262144
-1 -1 1;
#X obj 306 564 spigot;
#X obj 373 549 tgl 15 1 empty empty empty 17 7 0 10 -262144 -1 -1 0
1;
#X obj 54 351 s quick;
#X obj 322 537 r quick;
#X obj 371 492 sel 0;
#X msg 368 513 1;
#X msg 399 513 0;
#X obj 466 342 s random;
#X obj 374 468 r random;
#X obj 418 485 nbx 5 14 -1e+37 1e+37 0 0 empty empty empty 0 -8 0 10
-262144 -1 -1 2 256 0;
#X obj 884 700 * 2;
#X obj 471 653 osc~;
#X obj 1382 181 ead~ 0 0;
#X obj 1354 337 *~;
#X floatatom 1386 70 5 0 0 0 - - -, f 5;
#X floatatom 1435 157 5 0 0 0 - - -, f 5;
#X obj 1326 82 bng 15 250 50 0 empty empty empty 0 -6 0 8 -262144 -1
-1;
#X obj 1231 198 r~ tone3+;
#X obj 623 775 s~ tone3+;
#X obj 1299 53 r quick;
#X obj 681 596 s boti;
#X obj 1371 44 r boti;
#X obj 1438 52 r boti;
#X obj 930 781 *~;
#X obj 941 760 hsl 128 15 0 1 0 1 empty empty empty -2 -8 0 10 -262144
-1 -1 12700 1;
#X obj 768 514 *~;
#X obj 783 494 hsl 128 15 0 1 0 1 empty empty empty -2 -8 0 10 -262144
-1 -1 0 1;
#X obj 955 377 r~ tone3;
#X obj 429 313 metro 13000;
#X msg 799 452 \$1 13000;
#X obj 667 511 phasor~;
#X obj 35 576 s quick2;
#X obj 1320 27 r quick2;
#X obj 391 680 s freqØ;
#X obj 1418 20 r freqØ;
#X obj 222 -227 sel 0 1 2 3 4 5 6 7;
#X msg 456 -560 27.7;
#X obj 490 -589 t b f;
#X obj 502 -543 *;
#X obj 502 -520 nbx 5 14 -1e+37 1e+37 0 0 empty empty empty 0 -8 0
10 -262144 -1 -1 55.4 256 0;
#X obj 499 -501 s timemultiverse;
#X obj 544 -587 hradio 15 1 1 13 empty empty empty 0 -8 0 10 -262144
-1 -1 2;
#X obj 398 -429 r timemultiverse;
#X obj 326 -405 metro;
#X obj 185 -335 hradio 15 1 0 32 empty empty empty 0 -8 0 10 -262144
-1 -1 31;
#X obj 431 -154 hradio 15 1 0 14 empty empty empty 0 -8 0 10 -262144
-1 -1 9;
#X msg 455 -192 3;
#X msg 486 -192 4;
#X msg 524 -192 6;
#X msg 555 -192 9;
#X msg 589 -192 12;
#X msg 423 -192 0;
#X obj 579 -139 s Dims;
#X obj 673 -157 hradio 15 1 0 14 empty empty empty 0 -8 0 10 -262144
-1 -1 4;
#X msg 697 -195 3;
#X msg 728 -195 4;
#X msg 766 -195 6;
#X msg 797 -195 9;
#X msg 831 -195 12;
#X msg 665 -195 0;
#X obj 821 -142 s Dims;
#X obj 677 -252 sel 0 1 2 3 4 5;
#X obj 615 -276 random 6;
#X obj 591 -289 bng 15 250 50 0 empty empty empty 17 7 0 10 -262144
-1 -1;
#X obj 435 -249 sel 16 17 18 19 20 21 22 23;
#X obj 352 -375 counter 359;
#X obj 116 -479 knob 111 111 0 360 0 0 empty empty empty 0 -8 0 8 -262144
-1 -1 4156 1;
#X obj -257 -577 nbx 3 83 -1e+37 1e+37 0 0 empty empty empty 0 -8 0
166 -262144 -1 -1 0 256 0;
#X msg 769 981 27.7;
#X obj 803 952 t b f;
#X obj 815 998 *;
#X obj 803 929 + 1;
#X obj 955 1018 *~;
#X obj 979 944 hsl 128 15 0 0.2 0 1 empty empty empty -2 -8 0 10 -262144
-1 -1 400 1;
#X obj 969 996 line~;
#X obj 1002 1021 *~;
#X obj 1015 1000 hsl 128 15 0 2 0 1 empty empty empty -2 -8 0 10 -262144
-1 -1 11900 1;
#X msg 1033 959 \$1 13000;
#X obj 901 1018 phasor~;
#X obj 1138 1052 s~ tone4;
#X obj 1307 204 r~ tone4;
#X obj 789 898 hradio 15 1 0 13 empty empty empty 0 -8 0 10 -262144
-1 -1 2;
#X obj 757 815 random 5;
#X obj 779 832 sel 0 1 2 3 4;
#X msg 762 868 3;
#X msg 794 867 2;
#X msg 831 868 5;
#X msg 862 868 7;
#X msg 896 868 11;
#X obj 727 772 r quick2;
#X obj 764 798 bng 15 250 50 0 empty empty empty 17 7 0 10 -262144
-1 -1;
#X msg 746 920 8;
#X obj 1330 258 *~ 0.4;
#X obj 1805 457 clip~ 0 1;
#X obj 1806 432 -~ 19;
#X obj 947 832 sel 3;
#X msg 1140 778 27.7;
#X obj 1174 749 t b f;
#X obj 1186 795 *;
#X obj 1186 818 nbx 5 14 -1e+37 1e+37 0 0 empty empty empty 0 -8 0
10 -262144 -1 -1 110.626 256 0;
#X obj 1172 857 hsl 128 15 0 0.2 0 1 empty empty empty -2 -8 0 10 -262144
-1 -1 400 1;
#X obj 1366 772 t b f;
#X obj 1378 841 nbx 5 14 -1e+37 1e+37 0 0 empty empty empty 0 -8 0
10 -262144 -1 -1 3.9937 256 0;
#X msg 1332 801 4;
#X msg 1281 764 set \$1;
#X obj 1254 738 hradio 15 1 1 13 empty empty empty 0 -8 0 10 -262144
-1 -1 4;
#X msg 1227 708 3;
#X msg 1258 708 4;
#X msg 1296 708 6;
#X msg 1327 708 9;
#X msg 1361 708 12;
#X obj 1378 818 -;
#X obj 1325 848 bng 15 250 50 0 empty empty empty 17 7 0 10 -262144
-1 -1;
#X obj 633 1220 nbx 5 14 -1e+37 1e+37 0 0 empty empty empty 0 -8 0
10 -262144 -1 -1 221.6 256 0;
#X obj 682 1202 t b f;
#X obj 682 1178 hradio 15 1 1 4 empty empty empty 0 -8 0 10 -262144
-1 -1 0;
#X obj 703 1246 nbx 5 14 -1e+37 1e+37 0 0 empty empty empty 0 -8 0
10 -262144 -1 -1 0 256 0;
#X obj 309 181 nbx 3 83 -1e+37 1e+37 0 0 empty empty empty 0 -8 0 166
-262144 -1 -1 0 256 0;
#X obj 1808 506 *~;
#X obj 1819 485 hsl 128 15 0 1 0 1 empty empty empty -2 -8 0 10 -262144
-1 -1 400 1;
#X obj 807 181 random 6;
#X obj 783 168 bng 15 250 50 0 empty empty empty 17 7 0 10 -262144
-1 -1;
#X obj 869 205 sel 0;
#X msg 856 236 1;
#X msg 886 235 0;
#X obj 293 -292 sel 0;
#X obj 1192 967 nbx 3 44 -1e+37 1e+37 0 0 empty empty empty 0 -8 0
55 -262144 -1 -1 4 256 0;
#X obj 1171 947 r Dims;
#X obj 493 -376 s clock30_reset;
#X obj 1079 753 spigot;
#X obj 1146 738 tgl 15 1 empty empty empty 17 7 0 10 -262144 -1 -1
0 1;
#X obj 1144 681 sel 0;
#X msg 1141 702 1;
#X msg 1172 702 0;
#X obj 1065 661 r clock30_reset;
#X obj 1025 663 sel 0;
#X obj 1024 683 counter 4;
#N canvas 720 219 455 388 freeverber000 0;
#X obj -36 -11 freeverb~;
#X msg 146 -246 roomsize \$1;
#X msg 146 -201 damping \$1;
#X msg 146 -157 width \$1;
#X msg 146 -113 wet \$1;
#X msg 146 -69 dry \$1;
#X obj 158 -92 hsl 60 18 0 1 0 1 empty empty dry 2 9 1 12 -262144 -1
-1 0 0;
#X obj 158 -136 hsl 60 18 0 1 0 1 empty empty wet 2 9 1 12 -191407
-13330 -13330 2300 0;
#X obj 158 -180 hsl 60 18 0 1 0 1 empty empty width 2 9 1 12 -228856
-1 -33289 5900 0;
#X obj 158 -224 hsl 60 18 0 2 0 1 empty empty damping 2 9 1 12 -228856
-1 -33289 0 0;
#X obj 158 -269 hsl 60 18 0.11 1.1 0 1 empty empty roomsize 2 9 1 12
-228856 -1 -66577 5600 0;
#X obj -11 26 *~;
#X obj 40 -15 hsl 128 15 0 0.2 0 1 empty empty empty -2 -8 0 10 -262144
-1 -1 6600 1;
#X obj -39 25 *~;
#X obj -70 -115 inlet~;
#X obj -26 83 outlet~;
#X connect 0 0 13 0;
#X connect 0 1 11 0;
#X connect 1 0 0 0;
#X connect 2 0 0 0;
#X connect 3 0 0 0;
#X connect 4 0 0 0;
#X connect 5 0 0 0;
#X connect 6 0 5 0;
#X connect 7 0 4 0;
#X connect 8 0 3 0;
#X connect 9 0 2 0;
#X connect 10 0 1 0;
#X connect 11 0 15 0;
#X connect 12 0 11 1;
#X connect 12 0 13 1;
#X connect 13 0 15 0;
#X connect 14 0 0 0;
#X connect 14 0 0 1;
#X restore 978 441 pd freeverber000;
#X obj 119 972 counter 3;
#X obj 123 1005 nbx 5 14 -1e+37 1e+37 0 0 empty empty empty 0 -8 0
10 -262144 -1 -1 2 256 0;
#X obj 104 921 sel 0 83 111 166 250 333;
#X obj 127 892 r clock30_reset;
#X obj 1221 881 nbx 5 14 -1e+37 1e+37 0 0 empty empty empty 0 -8 0
10 -262144 -1 -1 0.00629921 256 0;
#N canvas 640 182 550 571 gravityatractors 0;
#X obj 84 5 metro 50;
#X obj 84 -19 tgl 15 0 empty empty empty 20 8 0 8 -262144 -1 -1 1 1
;
#X floatatom 135 -20 5 0 0 0 - - -, f 5;
#X obj 78 121 lorenz;
#X floatatom 123 229 5 0 0 0 - - -, f 5;
#X msg 164 138 param 0.02 10 28 2.667;
#X text 162 105 Reset To Initial Conditions;
#X text 164 156 Modify Parameters;
#X floatatom 78 229 5 0 0 0 - - -, f 5;
#X floatatom 169 229 5 0 0 0 - - -, f 5;
#X text 107 202 Output;
#X msg 163 87 reset 0.1 0 0;
#X obj 24 28 r quick2;
#X obj 219 42 loadbang;
#X obj -5 0 r quick;
#X obj 16 113 bng 15 250 50 0 empty empty empty 17 7 0 10 -262144 -1
-1;
#X obj 116 362 hsl 128 15 -44 44 0 0 empty empty empty -2 -8 0 10 -262144
-1 -1 0 1;
#X obj 131 328 line;
#X obj 115 419 hsl 128 15 -1 1 0 0 empty empty empty -2 -8 0 10 -262144
-1 -1 0 1;
#X obj 159 392 / 100;
#X obj 165 438 nbx 5 14 -1e+37 1e+37 0 0 empty empty empty 0 -8 0 10
-262144 -1 -1 0 256 0;
#X obj 243 479 outlet;
#X obj 183 457 abs;
#X msg 159 299 \$1 10000;
#X connect 0 0 3 0;
#X connect 1 0 0 0;
#X connect 2 0 0 1;
#X connect 3 0 8 0;
#X connect 3 1 4 0;
#X connect 3 2 9 0;
#X connect 4 0 23 0;
#X connect 5 0 3 0;
#X connect 11 0 3 0;
#X connect 12 0 15 0;
#X connect 13 0 11 0;
#X connect 13 0 1 0;
#X connect 14 0 15 0;
#X connect 16 0 19 0;
#X connect 17 0 16 0;
#X connect 18 0 20 0;
#X connect 19 0 18 0;
#X connect 20 0 22 0;
#X connect 22 0 21 0;
#X connect 23 0 17 0;
#X restore 1205 900 pd gravityatractors;
#X obj 569 718 *~;
#X obj 572 685 hsl 128 15 0 0.05 0 1 empty empty empty -2 -8 0 10 -262144
-1 -1 1693 1;
#X msg 262 215 27.7;
#X obj 296 186 t b f;
#X obj 308 232 *;
#X obj 308 255 nbx 5 14 -1e+37 1e+37 0 0 empty empty empty 0 -8 0 10
-262144 -1 -1 166.2 256 0;
#X obj 350 188 hradio 15 1 1 13 empty empty empty 0 -8 0 10 -262144
-1 -1 6;
#X msg 258 364 set \$1;
#X obj 394 206 nbx 5 14 -1e+37 1e+37 0 0 empty empty empty 0 -8 0 10
-262144 -1 -1 6 256 0;
#N canvas 631 197 550 571 gravityatractors 0;
#X obj 84 5 metro 50;
#X obj 84 -19 tgl 15 0 empty empty empty 20 8 0 8 -262144 -1 -1 1 1
;
#X floatatom 135 -20 5 0 0 0 - - -, f 5;
#X obj 78 121 lorenz;
#X floatatom 123 229 5 0 0 0 - - -, f 5;
#X msg 164 138 param 0.02 10 28 2.667;
#X text 162 105 Reset To Initial Conditions;
#X text 164 156 Modify Parameters;
#X floatatom 78 229 5 0 0 0 - - -, f 5;
#X floatatom 169 229 5 0 0 0 - - -, f 5;
#X text 107 202 Output;
#X msg 163 87 reset 0.1 0 0;
#X obj 24 28 r quick2;
#X obj 219 42 loadbang;
#X obj -5 0 r quick;
#X obj 16 113 bng 15 250 50 0 empty empty empty 17 7 0 10 -262144 -1
-1;
#X obj 116 362 hsl 128 15 -44 44 0 0 empty empty empty -2 -8 0 10 -262144
-1 -1 0 1;
#X obj 131 328 line;
#X obj 243 479 outlet;
#X obj 183 457 abs;
#X msg 159 299 \$1 10000;
#X obj 164 496 hsl 128 15 -1 14 0 0 empty empty empty -2 -8 0 10 -262144
-1 -1 0 1;
#X obj 214 515 nbx 5 14 -1e+37 1e+37 0 0 empty empty empty 0 -8 0 10
-262144 -1 -1 0 256 0;
#X obj 159 392 / 1;
#X connect 0 0 3 0;
#X connect 1 0 0 0;
#X connect 2 0 0 1;
#X connect 3 0 8 0;
#X connect 3 1 4 0;
#X connect 3 2 9 0;
#X connect 4 0 20 0;
#X connect 5 0 3 0;
#X connect 11 0 3 0;
#X connect 12 0 15 0;
#X connect 13 0 11 0;
#X connect 13 0 1 0;
#X connect 14 0 15 0;
#X connect 16 0 23 0;
#X connect 17 0 16 0;
#X connect 19 0 18 0;
#X connect 19 0 21 0;
#X connect 20 0 17 0;
#X connect 21 0 22 0;
#X connect 23 0 19 0;
#X restore 217 156 pd gravityatractors;
#X obj 924 590 hsl 60 23 0 1 0 1 empty empty Volume_0-1 -2 -6 0 8 -262144
-1 -1 2600 1;
#X obj 1480 172 tgl 15 1 empty empty empty 17 7 0 10 -262144 -1 -1
0 1;
#N canvas 85 109 809 626 hz27 0;
#X obj 108 227 outlet~;
#X obj 338 -107 loadbang;
#X obj 344 -43 bng 15 250 50 0 empty empty empty 17 7 0 10 -262144
-1 -1;
#X obj 312 -92 bng 15 250 50 0 empty empty empty 17 7 0 10 -262144
-1 -1;
#X obj 343 -18 counter 12;
#X obj 441 -1 hradio 15 1 0 13 empty empty empty 0 -8 0 10 -262144
-1 -1 4;
#X obj 274 100 sel 0 1 2 5 7 8 10 11;
#X obj 112 32 line~;
#X obj 101 53 *~;
#X msg 125 -1 \$1 50;
#X msg 155 -20 1;
#X msg 185 -18 0;
#X obj 342 -71 metro 1111;
#X obj 193 39 tgl 15 0 empty empty empty 17 7 0 10 -262144 -1 -1 0
1;
#X obj 66 -27 osc~ 27.7;
#X obj 473 54 tgl 15 0 empty empty empty 17 7 0 10 -262144 -1 -1 1
1;
#X obj 402 26 sel 0;
#X obj 460 88 sel 1 0;
#X msg 409 142 1;
#X msg 438 146 0;
#X msg 489 146 1;
#X msg 518 150 0;
#X obj 306 183 spigot;
#X obj 411 202 spigot;
#X obj 395 180 tgl 15 0 empty empty empty 17 7 0 10 -262144 -1 -1 1
1;
#X obj 502 193 tgl 15 0 empty empty empty 17 7 0 10 -262144 -1 -1 0
1;
#X obj 177 78 outlet;
#X obj 118 167 *~ 2.7;
#X connect 1 0 12 0;
#X connect 2 0 4 0;
#X connect 3 0 12 0;
#X connect 4 0 5 0;
#X connect 4 0 6 0;
#X connect 4 0 16 0;
#X connect 6 0 10 0;
#X connect 6 2 22 0;
#X connect 6 3 23 0;
#X connect 7 0 8 1;
#X connect 8 0 27 0;
#X connect 9 0 7 0;
#X connect 10 0 9 0;
#X connect 10 0 13 0;
#X connect 11 0 9 0;
#X connect 11 0 13 0;
#X connect 12 0 2 0;
#X connect 13 0 26 0;
#X connect 14 0 8 0;
#X connect 15 0 17 0;
#X connect 16 0 15 0;
#X connect 17 0 18 0;
#X connect 17 0 21 0;
#X connect 17 1 19 0;
#X connect 17 1 20 0;
#X connect 18 0 22 1;
#X connect 18 0 24 0;
#X connect 19 0 22 1;
#X connect 19 0 24 0;
#X connect 20 0 23 1;
#X connect 20 0 25 0;
#X connect 21 0 23 1;
#X connect 21 0 25 0;
#X connect 22 0 11 0;
#X connect 23 0 11 0;
#X connect 27 0 0 0;
#X restore 897 513 pd hz27;
#N canvas 432 121 809 626 hz55 0;
#X obj 108 227 outlet~;
#X obj 338 -107 loadbang;
#X obj 344 -43 bng 15 250 50 0 empty empty empty 17 7 0 10 -262144
-1 -1;
#X obj 312 -92 bng 15 250 50 0 empty empty empty 17 7 0 10 -262144
-1 -1;
#X obj 343 -18 counter 12;
#X obj 441 -1 hradio 15 1 0 13 empty empty empty 0 -8 0 10 -262144
-1 -1 9;
#X obj 274 100 sel 0 1 2 5 7 8 10 11;
#X obj 112 32 line~;
#X obj 101 53 *~;
#X msg 125 -1 \$1 50;
#X msg 155 -20 1;
#X msg 185 -18 0;
#X obj 193 39 tgl 15 0 empty empty empty 17 7 0 10 -262144 -1 -1 0
1;
#X obj 473 54 tgl 15 0 empty empty empty 17 7 0 10 -262144 -1 -1 1
1;
#X obj 402 26 sel 0;
#X obj 460 88 sel 1 0;
#X msg 409 142 1;
#X msg 438 146 0;
#X msg 489 146 1;
#X msg 518 150 0;
#X obj 306 183 spigot;
#X obj 411 202 spigot;
#X obj 395 180 tgl 15 0 empty empty empty 17 7 0 10 -262144 -1 -1 1
1;
#X obj 502 193 tgl 15 0 empty empty empty 17 7 0 10 -262144 -1 -1 0
1;
#X obj 342 -71 metro 2222;
#X obj 66 -27 osc~ 55.4;
#X obj 158 71 outlet;
#X obj 123 176 *~ 0.5;
#X connect 1 0 24 0;
#X connect 2 0 4 0;
#X connect 3 0 24 0;
#X connect 4 0 5 0;
#X connect 4 0 6 0;
#X connect 4 0 14 0;
#X connect 6 0 10 0;
#X connect 6 2 20 0;
#X connect 6 3 21 0;
#X connect 7 0 8 1;
#X connect 8 0 27 0;
#X connect 9 0 7 0;
#X connect 10 0 9 0;
#X connect 10 0 12 0;
#X connect 11 0 9 0;
#X connect 11 0 12 0;
#X connect 12 0 26 0;
#X connect 13 0 15 0;
#X connect 14 0 13 0;
#X connect 15 0 16 0;
#X connect 15 0 19 0;
#X connect 15 1 17 0;
#X connect 15 1 18 0;
#X connect 16 0 20 1;
#X connect 16 0 22 0;
#X connect 17 0 20 1;
#X connect 17 0 22 0;
#X connect 18 0 21 1;
#X connect 18 0 23 0;
#X connect 19 0 21 1;
#X connect 19 0 23 0;
#X connect 20 0 11 0;
#X connect 21 0 11 0;
#X connect 24 0 2 0;
#X connect 25 0 8 0;
#X connect 27 0 0 0;
#X restore 853 543 pd hz55;
#N canvas 417 118 809 626 hz83 0;
#X obj 108 227 outlet~;
#X obj 338 -107 loadbang;
#X obj 344 -43 bng 15 250 50 0 empty empty empty 17 7 0 10 -262144
-1 -1;
#X obj 312 -92 bng 15 250 50 0 empty empty empty 17 7 0 10 -262144
-1 -1;
#X obj 343 -18 counter 12;
#X obj 441 -1 hradio 15 1 0 13 empty empty empty 0 -8 0 10 -262144
-1 -1 2;
#X obj 274 100 sel 0 1 2 5 7 8 10 11;
#X obj 112 32 line~;
#X obj 101 53 *~;
#X msg 125 -1 \$1 50;
#X msg 155 -20 1;
#X msg 185 -18 0;
#X obj 193 39 tgl 15 0 empty empty empty 17 7 0 10 -262144 -1 -1 0
1;
#X obj 473 54 tgl 15 0 empty empty empty 17 7 0 10 -262144 -1 -1 1
1;
#X obj 402 26 sel 0;
#X obj 460 88 sel 1 0;
#X msg 409 142 1;
#X msg 438 146 0;
#X msg 489 146 1;
#X msg 518 150 0;
#X obj 306 183 spigot;
#X obj 411 202 spigot;
#X obj 395 180 tgl 15 0 empty empty empty 17 7 0 10 -262144 -1 -1 1
1;
#X obj 502 193 tgl 15 0 empty empty empty 17 7 0 10 -262144 -1 -1 0
1;
#X obj 158 71 outlet;
#X obj 66 -27 osc~ 83;
#X obj 342 -71 metro 3333;
#X obj 123 176 *~ 0.3;
#X connect 1 0 26 0;
#X connect 2 0 4 0;
#X connect 3 0 26 0;
#X connect 4 0 5 0;
#X connect 4 0 6 0;
#X connect 4 0 14 0;
#X connect 6 0 10 0;
#X connect 6 1 20 0;
#X connect 6 2 21 0;
#X connect 7 0 8 1;
#X connect 8 0 27 0;
#X connect 9 0 7 0;
#X connect 10 0 9 0;
#X connect 10 0 12 0;
#X connect 11 0 9 0;
#X connect 11 0 12 0;
#X connect 12 0 24 0;
#X connect 13 0 15 0;
#X connect 14 0 13 0;
#X connect 15 0 16 0;
#X connect 15 0 19 0;
#X connect 15 1 17 0;
#X connect 15 1 18 0;
#X connect 16 0 20 1;
#X connect 16 0 22 0;
#X connect 17 0 20 1;
#X connect 17 0 22 0;
#X connect 18 0 21 1;
#X connect 18 0 23 0;
#X connect 19 0 21 1;
#X connect 19 0 23 0;
#X connect 20 0 11 0;
#X connect 21 0 11 0;
#X connect 25 0 8 0;
#X connect 26 0 2 0;
#X connect 27 0 0 0;
#X restore 833 572 pd hz83;
#X obj 787 555 tgl 34 0 empty empty empty 17 7 0 10 -262144 -1 -1 0
1;
#X obj 781 609 tgl 34 0 empty empty empty 17 7 0 10 -262144 -1 -1 0
1;
#X obj 920 472 tgl 34 0 empty empty empty 17 7 0 10 -262144 -1 -1 0
1;
#N canvas 194 122 602 544 mins 0;
#X obj 127 107 *~ 0;
#X obj 160 93 hsl 128 15 0 1 0 0 empty empty Volume_0-1 -2 -6 0 8 -262144
-1 -1 5597 1;
#X obj 208 -17 line~;
#X obj 88 19 *~;
#X obj 204 -119 bng 15 250 50 0 empty empty empty 0 -6 0 8 -241291
-1 -1;
#X obj 88 -12 osc~;
#X obj 88 -50 line~;
#X msg 137 -48 0.5;
#X obj 266 76 inlet;
#X obj 158 -146 inlet;
#X msg 104 -190 174 \, 16 120;
#X msg 224 -158 1 \, 0 333;
#X msg 121 -225 3330 \, 34 111;
#X msg 239 -193 1 \, 0 2222;
#X msg 255 -223 1 \, 0 1111;
#X msg 137 -256 220 \, 0 23;
#X msg 209 -41 1 \, 0 2222;
#X obj 219 221 outlet~;
#X obj 338 -107 loadbang;
#X obj 342 -71 metro 1000;
#X obj 343 -18 counter 59;
#X obj 339 12 sel 0;
#X obj 344 -43 bng 15 250 50 0 empty empty empty 17 7 0 10 -262144
-1 -1;
#X msg 89 -73 83 \, 27.7 333;
#X obj -11 62 line~;
#X obj -131 98 *~;
#X obj -131 67 osc~;
#X obj -131 29 line~;
#X msg -82 31 0.5;
#X msg -9 39 1 \, 0 22;
#X obj -10 145 *~ 1;
#X obj 342 42 outlet;
#X msg -130 6 11183 \, 27.7 33;
#X connect 0 0 17 0;
#X connect 1 0 0 1;
#X connect 2 0 3 1;
#X connect 3 0 0 0;
#X connect 4 0 16 0;
#X connect 4 0 23 0;
#X connect 4 0 7 0;
#X connect 4 0 32 0;
#X connect 4 0 28 0;
#X connect 4 0 29 0;
#X connect 5 0 3 0;
#X connect 6 0 5 0;
#X connect 7 0 5 1;
#X connect 8 0 1 0;
#X connect 9 0 4 0;
#X connect 16 0 2 0;
#X connect 18 0 19 0;
#X connect 19 0 22 0;
#X connect 20 0 21 0;
#X connect 21 0 4 0;
#X connect 21 0 31 0;
#X connect 22 0 20 0;
#X connect 23 0 6 0;
#X connect 24 0 25 1;
#X connect 25 0 30 0;
#X connect 26 0 25 0;
#X connect 27 0 26 0;
#X connect 28 0 26 1;
#X connect 29 0 24 0;
#X connect 30 0 17 0;
#X connect 32 0 27 0;
#X restore 876 618 pd mins;
#X obj 921 639 bng 15 250 50 0 empty empty empty 17 7 0 10 -262144
-1 -1;
#X obj 1839 561 line~;
#X obj 1828 582 *~;
#X msg 1852 528 \$1 50;
#X obj 1482 225 tgl 15 1 empty empty empty 17 7 0 10 -262144 -1 -1
0 1;
#N canvas 104 121 809 626 txiki83 0;
#X obj 127 107 *~ 0;
#X obj 160 93 hsl 128 15 0 1 0 0 empty empty Volume_0-1 -2 -6 0 8 -262144
-1 -1 12700 1;
#X obj 208 -17 line~;
#X obj 88 19 *~;
#X obj 88 -12 osc~;
#X obj 88 -50 line~;
#X msg 137 -48 0.5;
#X obj 219 221 outlet~;
#X obj 344 -43 bng 15 250 50 0 empty empty empty 17 7 0 10 -262144
-1 -1;
#X obj 339 12 sel 1 2 5 7 8 10 11;
#X obj 415 58 hradio 15 1 0 13 empty empty empty 0 -8 0 10 -262144
-1 -1 12;
#X obj 440 84 / 10;
#X obj 75 -169 bng 15 250 50 0 empty empty empty 0 -6 0 8 -241291 -1
-1;
#X obj 109 -196 bng 15 250 50 0 empty empty empty 17 7 0 10 -262144
-1 -1;
#X obj 557 -136 bng 15 250 50 0 empty empty empty 17 7 0 10 -262144
-1 -1;
#X obj 202 166 *~ 0;
#X obj 341 135 inlet;
#X msg 46 -109 11155.4 \, 27.7 333;
#X obj 246 -204 bng 15 250 50 0 empty empty empty 0 -6 0 8 -241291
-1 -1;
#X obj -114 180 *~ 0;
#X obj -81 166 hsl 128 15 0 1 0 0 empty empty Volume_0-1 -2 -6 0 8
-262144 -1 -1 12700 1;
#X obj -22 294 outlet~;
#X obj -39 239 *~ 0;
#X obj 100 208 inlet;
#X obj -32 106 line~;
#X obj -152 142 *~;
#X obj -152 111 osc~;
#X obj -152 73 line~;
#X msg -103 75 0.5;
#X obj 6 -81 bng 15 250 50 0 empty empty empty 0 -6 0 8 -241291 -1
-1;
#X msg -149 48 8183 \, 27.7 333;
#X obj 343 -18 counter 13;
#X obj 102 -245 bng 15 250 50 0 empty empty empty 17 7 0 10 -262144
-1 -1;
#X obj 552 -186 bng 15 250 50 0 empty empty empty 17 7 0 10 -262144
-1 -1;
#X obj 241 -254 bng 15 250 50 0 empty empty empty 0 -6 0 8 -241291
-1 -1;
#X obj 1 -131 bng 15 250 50 0 empty empty empty 0 -6 0 8 -241291 -1
-1;
#X obj 390 -280 sel 0;
#X msg 387 -242 1;
#X msg 421 -241 0;
#X obj 422 -216 spigot;
#X obj 477 -224 tgl 15 0 empty empty empty 17 7 0 10 -262144 -1 -1
1 1;
#X obj -64 -276 sel 0;
#X msg -67 -238 1;
#X msg -33 -237 0;
#X obj -32 -212 spigot;
#X obj 23 -220 tgl 15 0 empty empty empty 17 7 0 10 -262144 -1 -1 1
1;
#X obj 186 132 *~ 0.16;
#X obj 439 -79 r metro83;
#X msg 177 -50 1 \, 0 8;
#X obj -64 -305 random 3;
#X obj 390 -309 random 3;
#X obj 338 -107 loadbang;
#X obj 312 -92 bng 15 250 50 0 empty empty empty 17 7 0 10 -262144
-1 -1;
#X obj 342 -71 metro 83;
#X obj -54 205 *~ 0.2;
#X msg 10 71 1 \, 0 2;
#X msg 250 -52 1 \, 0 2;
#X connect 0 0 46 0;
#X connect 1 0 0 1;
#X connect 1 0 20 0;
#X connect 2 0 3 1;
#X connect 3 0 0 0;
#X connect 4 0 3 0;
#X connect 5 0 4 0;
#X connect 6 0 4 1;
#X connect 8 0 31 0;
#X connect 8 0 49 0;
#X connect 8 0 50 0;
#X connect 9 0 18 0;
#X connect 9 1 18 0;
#X connect 9 2 18 0;
#X connect 9 3 18 0;
#X connect 9 4 18 0;
#X connect 9 5 18 0;
#X connect 9 6 18 0;
#X connect 9 7 14 0;
#X connect 10 0 11 0;
#X connect 11 0 1 0;
#X connect 12 0 17 0;
#X connect 12 0 6 0;
#X connect 12 0 48 0;
#X connect 13 0 12 0;
#X connect 14 0 33 0;
#X connect 15 0 7 0;
#X connect 16 0 15 1;
#X connect 17 0 5 0;
#X connect 18 0 44 0;
#X connect 19 0 54 0;
#X connect 20 0 19 1;
#X connect 22 0 21 0;
#X connect 23 0 22 1;
#X connect 24 0 25 1;
#X connect 25 0 19 0;
#X connect 26 0 25 0;
#X connect 27 0 26 0;
#X connect 28 0 26 1;
#X connect 29 0 55 0;
#X connect 29 0 30 0;
#X connect 29 0 28 0;
#X connect 30 0 27 0;
#X connect 31 0 9 0;
#X connect 31 0 10 0;
#X connect 32 0 12 0;
#X connect 33 0 39 0;
#X connect 34 0 44 0;
#X connect 35 0 29 0;
#X connect 36 0 38 0;
#X connect 36 1 37 0;
#X connect 37 0 40 0;
#X connect 38 0 40 0;
#X connect 39 0 32 0;
#X connect 40 0 39 1;
#X connect 41 0 43 0;
#X connect 41 1 42 0;
#X connect 42 0 45 0;
#X connect 43 0 45 0;
#X connect 44 0 35 0;
#X connect 45 0 44 1;
#X connect 46 0 15 0;
#X connect 47 0 8 0;
#X connect 48 0 2 0;
#X connect 49 0 41 0;
#X connect 50 0 36 0;
#X connect 51 0 53 0;
#X connect 52 0 53 0;
#X connect 54 0 22 0;
#X connect 55 0 24 0;
#X connect 56 0 2 0;
#X restore 1476 250 pd txiki83;
#X obj 1565 222 tgl 15 1 empty empty empty 17 7 0 10 -262144 -1 -1
0 1;
#N canvas 95 136 1131 626 txiki27 0;
#X obj 127 107 *~ 0;
#X obj 160 93 hsl 128 15 0 1 0 0 empty empty Volume_0-1 -2 -6 0 8 -262144
-1 -1 12700 1;
#X obj 208 -17 line~;
#X obj 88 19 *~;
#X obj 88 -12 osc~;
#X obj 88 -50 line~;
#X msg 137 -48 0.5;
#X obj 219 221 outlet~;
#X obj 358 -133 loadbang;
#X obj 342 -45 bng 15 250 50 0 empty empty empty 17 7 0 10 -262144
-1 -1;
#X obj 332 -118 bng 15 250 50 0 empty empty empty 17 7 0 10 -262144
-1 -1;
#X obj 339 12 sel 1 2 5 7 8 10 11;
#X obj 415 58 hradio 15 1 0 13 empty empty empty 0 -8 0 10 -262144
-1 -1 10;
#X obj 440 84 / 10;
#X obj 79 -163 bng 15 250 11 1 empty empty empty 0 -6 0 8 -241291 -1
-1;
#X obj 109 -196 bng 15 250 50 0 empty empty empty 17 7 0 10 -262144
-1 -1;
#X obj 557 -136 bng 15 250 50 0 empty empty empty 17 7 0 10 -262144
-1 -1;
#X obj 202 166 *~ 0;
#X obj 341 135 inlet;
#X obj 246 -204 bng 15 250 50 0 empty empty empty 0 -6 0 8 -241291
-1 -1;
#X obj -114 180 *~ 0;
#X obj -81 166 hsl 128 15 0 1 0 0 empty empty Volume_0-1 -2 -6 0 8
-262144 -1 -1 12700 1;
#X obj -22 294 outlet~;
#X obj -39 239 *~ 0;
#X obj 100 208 inlet;
#X obj -32 106 line~;
#X obj -152 142 *~;
#X obj -152 111 osc~;
#X obj -152 73 line~;
#X msg -103 75 0.5;
#X obj 6 -81 bng 15 250 50 0 empty empty empty 0 -6 0 8 -241291 -1
-1;
#X msg 250 -52 1 \, 0 33;
#X msg 177 -50 1 \, 0 111;
#X obj 362 -97 metro 27;
#X obj 343 -18 counter 13;
#X obj 395 -230 sel 0;
#X msg 392 -192 1;
#X msg 426 -191 0;
#X obj 427 -166 spigot;
#X obj 482 -174 tgl 15 0 empty empty empty 17 7 0 10 -262144 -1 -1
1 1;
#X obj -59 -226 sel 0;
#X msg -62 -188 1;
#X msg -28 -187 0;
#X obj -27 -162 spigot;
#X obj 28 -170 tgl 15 0 empty empty empty 17 7 0 10 -262144 -1 -1 1
1;
#X msg 46 -109 333 \, 27.7 333;
#X obj 461 -74 r metro27;
#X msg -149 48 166 \, 27.7 333;
#X msg 10 71 1 \, 0 55;
#X obj -59 -255 random 2;
#X obj 395 -259 random 2;
#X obj 675 -107 sel 0;
#X msg 672 -69 1;
#X msg 706 -68 0;
#X obj 579 -28 spigot;
#X obj 762 -51 tgl 15 0 empty empty empty 17 7 0 10 -262144 -1 -1 1
1;
#X obj 675 -136 random 2;
#X obj 139 -339 bng 15 250 50 0 empty empty empty 17 7 0 10 -262144
-1 -1;
#X obj 257 -310 sel 0;
#X msg 254 -272 1;
#X msg 288 -271 0;
#X obj 161 -231 spigot;
#X obj 344 -254 tgl 15 0 empty empty empty 17 7 0 10 -262144 -1 -1
1 1;
#X obj 257 -339 random 2;
#X obj 186 132 *~ 0.05;
#X obj -53 205 *~ 0.07;
#X connect 0 0 64 0;
#X connect 1 0 0 1;
#X connect 1 0 21 0;
#X connect 2 0 3 1;
#X connect 3 0 0 0;
#X connect 4 0 3 0;
#X connect 5 0 4 0;
#X connect 6 0 4 1;
#X connect 8 0 33 0;
#X connect 9 0 34 0;
#X connect 9 0 49 0;
#X connect 9 0 50 0;
#X connect 10 0 33 0;
#X connect 11 0 19 0;
#X connect 11 1 19 0;
#X connect 11 2 19 0;
#X connect 11 3 19 0;
#X connect 11 4 19 0;
#X connect 11 5 19 0;
#X connect 11 6 19 0;
#X connect 11 7 54 0;
#X connect 12 0 13 0;
#X connect 13 0 1 0;
#X connect 14 0 45 0;
#X connect 14 0 6 0;
#X connect 14 0 32 0;
#X connect 15 0 14 0;
#X connect 16 0 38 0;
#X connect 17 0 7 0;
#X connect 18 0 17 1;
#X connect 19 0 61 0;
#X connect 20 0 65 0;
#X connect 21 0 20 1;
#X connect 23 0 22 0;
#X connect 24 0 23 1;
#X connect 25 0 26 1;
#X connect 26 0 20 0;
#X connect 27 0 26 0;
#X connect 28 0 27 0;
#X connect 29 0 27 1;
#X connect 30 0 48 0;
#X connect 30 0 47 0;
#X connect 30 0 29 0;
#X connect 31 0 2 0;
#X connect 32 0 2 0;
#X connect 33 0 9 0;
#X connect 33 0 56 0;
#X connect 33 0 63 0;
#X connect 34 0 11 0;
#X connect 34 0 12 0;
#X connect 35 0 37 0;
#X connect 35 1 36 0;
#X connect 36 0 39 0;
#X connect 37 0 39 0;
#X connect 38 0 15 0;
#X connect 39 0 38 1;
#X connect 40 0 42 0;
#X connect 40 1 41 0;
#X connect 41 0 44 0;
#X connect 42 0 44 0;
#X connect 43 0 30 0;
#X connect 44 0 43 1;
#X connect 45 0 5 0;
#X connect 46 0 9 0;
#X connect 47 0 28 0;
#X connect 48 0 25 0;
#X connect 49 0 40 0;
#X connect 50 0 35 0;
#X connect 51 0 53 0;
#X connect 51 1 52 0;
#X connect 52 0 55 0;
#X connect 53 0 55 0;
#X connect 54 0 16 0;
#X connect 55 0 54 1;
#X connect 56 0 51 0;
#X connect 57 0 43 0;
#X connect 58 0 60 0;
#X connect 58 1 59 0;
#X connect 59 0 62 0;
#X connect 60 0 62 0;
#X connect 61 0 57 0;
#X connect 62 0 61 1;
#X connect 63 0 58 0;
#X connect 64 0 17 0;
#X connect 65 0 23 0;
#X restore 1559 247 pd txiki27;
#X obj 1566 294 tgl 15 1 empty empty empty 17 7 0 10 -262144 -1 -1
0 1;
#N canvas 50 127 809 626 txiki111 0;
#X obj 127 107 *~ 0;
#X obj 160 93 hsl 128 15 0 1 0 0 empty empty Volume_0-1 -2 -6 0 8 -262144
-1 -1 11430 1;
#X obj 208 -17 line~;
#X obj 88 19 *~;
#X obj 88 -12 osc~;
#X obj 88 -50 line~;
#X msg 137 -48 0.5;
#X obj 219 221 outlet~;
#X obj 517 -243 loadbang;
#X obj 342 -45 bng 15 250 50 0 empty empty empty 17 7 0 10 -262144
-1 -1;
#X obj 491 -228 bng 15 250 50 0 empty empty empty 17 7 0 10 -262144
-1 -1;
#X obj 339 12 sel 1 2 5 7 8 10 11;
#X obj 415 58 hradio 15 1 0 13 empty empty empty 0 -8 0 10 -262144
-1 -1 9;
#X obj 440 84 / 10;
#X obj 79 -163 bng 15 250 11 1 empty empty empty 0 -6 0 8 -241291 -1
-1;
#X obj 109 -196 bng 15 250 50 0 empty empty empty 17 7 0 10 -262144
-1 -1;
#X obj 557 -136 bng 15 250 50 0 empty empty empty 17 7 0 10 -262144
-1 -1;
#X obj 202 166 *~ 0;
#X obj 341 135 inlet;
#X obj 246 -204 bng 15 250 50 0 empty empty empty 0 -6 0 8 -241291
-1 -1;
#X obj -114 180 *~ 0;
#X obj -81 166 hsl 128 15 0 1 0 0 empty empty Volume_0-1 -2 -6 0 8
-262144 -1 -1 11430 1;
#X obj -22 294 outlet~;
#X obj -39 239 *~ 0;
#X obj 100 208 inlet;
#X obj -32 106 line~;
#X obj -152 142 *~;
#X obj -152 111 osc~;
#X obj -152 73 line~;
#X msg -103 75 0.5;
#X obj 6 -81 bng 15 250 50 0 empty empty empty 0 -6 0 8 -241291 -1
-1;
#X msg 177 -50 1 \, 0 111;
#X obj 343 -18 counter 13;
#X obj 395 -230 sel 0;
#X msg 392 -192 1;
#X msg 426 -191 0;
#X obj 427 -166 spigot;
#X obj 482 -174 tgl 15 0 empty empty empty 17 7 0 10 -262144 -1 -1
1 1;
#X obj -59 -226 sel 0;
#X msg -62 -188 1;
#X msg -28 -187 0;
#X obj -27 -162 spigot;
#X obj 28 -170 tgl 15 0 empty empty empty 17 7 0 10 -262144 -1 -1 0
1;
#X obj 521 -207 metro 111;
#X msg 9 71 1 \, 0 111;
#X obj 419 -99 r metro111;
#X obj -59 -255 random 2;
#X obj 395 -259 random 2;
#X msg -149 48 83 \, 0 333;
#X msg 47 -109 54 \, 0 360;
#X obj 388 265 bng 15 250 50 0 empty empty empty 17 7 0 10 -262144
-1 -1;
#X obj 468 218 r metro111;
#X obj 460 392 line~;
#X obj 340 428 *~;
#X obj 340 397 osc~;
#X obj 340 359 line~;
#X msg 389 361 0.5;
#X obj 146 294 bng 15 250 50 0 empty empty empty 17 7 0 10 -262144
-1 -1;
#X obj 215 414 line~;
#X obj 95 450 *~;
#X obj 95 419 osc~;
#X obj 95 381 line~;
#X msg 144 383 0.5;
#X msg 184 381 1 \, 0 11;
#X obj -18 392 *~ 0.7;
#X obj 226 327 *~ 0.7;
#X obj -55 206 *~ 0.6;
#X obj 187 133 *~ 0.6;
#X msg 429 359 1 \, 0 3;
#X msg 54 322 8888 \, 0 55;
#X msg 299 300 10001 \, 0 55;
#X connect 0 0 67 0;
#X connect 1 0 0 1;
#X connect 1 0 21 0;
#X connect 2 0 3 1;
#X connect 3 0 0 0;
#X connect 4 0 3 0;
#X connect 5 0 4 0;
#X connect 6 0 4 1;
#X connect 8 0 43 0;
#X connect 9 0 16 0;
#X connect 9 0 32 0;
#X connect 9 0 46 0;
#X connect 9 0 47 0;
#X connect 10 0 43 0;
#X connect 11 0 19 0;
#X connect 11 1 19 0;
#X connect 11 2 19 0;
#X connect 11 3 19 0;
#X connect 11 4 19 0;
#X connect 11 5 19 0;
#X connect 11 6 19 0;
#X connect 11 7 16 0;
#X connect 12 0 13 0;
#X connect 13 0 1 0;
#X connect 14 0 49 0;
#X connect 14 0 6 0;
#X connect 14 0 31 0;
#X connect 15 0 14 0;
#X connect 16 0 36 0;
#X connect 17 0 7 0;
#X connect 18 0 17 1;
#X connect 19 0 41 0;
#X connect 20 0 66 0;
#X connect 21 0 20 1;
#X connect 23 0 22 0;
#X connect 24 0 23 1;
#X connect 25 0 26 1;
#X connect 26 0 20 0;
#X connect 27 0 26 0;
#X connect 28 0 27 0;
#X connect 29 0 27 1;
#X connect 30 0 44 0;
#X connect 30 0 48 0;
#X connect 30 0 29 0;
#X connect 31 0 2 0;
#X connect 32 0 11 0;
#X connect 32 0 12 0;
#X connect 33 0 35 0;
#X connect 33 1 34 0;
#X connect 34 0 37 0;
#X connect 35 0 37 0;
#X connect 36 0 15 0;
#X connect 37 0 36 1;
#X connect 38 0 40 0;
#X connect 38 1 39 0;
#X connect 39 0 42 0;
#X connect 40 0 42 0;
#X connect 41 0 30 0;
#X connect 42 0 41 1;
#X connect 44 0 25 0;
#X connect 45 0 9 0;
#X connect 46 0 38 0;
#X connect 47 0 33 0;
#X connect 48 0 28 0;
#X connect 49 0 5 0;
#X connect 50 0 70 0;
#X connect 50 0 68 0;
#X connect 50 0 56 0;
#X connect 51 0 50 0;
#X connect 51 0 57 0;
#X connect 52 0 53 1;
#X connect 53 0 65 0;
#X connect 54 0 53 0;
#X connect 55 0 54 0;
#X connect 56 0 54 1;
#X connect 57 0 69 0;
#X connect 57 0 63 0;
#X connect 57 0 62 0;
#X connect 58 0 59 1;
#X connect 59 0 64 0;
#X connect 60 0 59 0;
#X connect 61 0 60 0;
#X connect 62 0 60 1;
#X connect 63 0 58 0;
#X connect 64 0 20 0;
#X connect 65 0 0 0;
#X connect 66 0 23 0;
#X connect 67 0 17 0;
#X connect 68 0 52 0;
#X connect 69 0 61 0;
#X connect 70 0 55 0;
#X restore 1560 319 pd txiki111;
#X obj 1592 358 tgl 15 1 empty empty empty 17 7 0 10 -262144 -1 -1
0 1;
#X obj 1870 600 tgl 34 0 empty empty empty 17 7 0 10 -262144 -1 -1
0 1;
#X obj 1593 -94 loadbang;
#X obj 1597 -32 bng 15 250 50 0 empty empty empty 17 7 0 10 -262144
-1 -1;
#X obj 1567 -79 bng 15 250 50 0 empty empty empty 17 7 0 10 -262144
-1 -1;
#X obj 1594 25 sel 1 2 5 7 8 10 11;
#X obj 1598 -5 counter 13;
#X obj 1597 -58 metro 1000;
#X msg 1500 152 1;
#X msg 1528 157 0;
#X obj 1546 186 tgl 15 1 empty empty empty 17 7 0 10 -262144 -1 -1
1 1;
#X msg 1566 166 1;
#X msg 1594 171 0;
#X obj 1616 199 tgl 15 0 empty empty empty 17 7 0 10 -262144 -1 -1
0 1;
#X msg 1636 179 1;
#X msg 1664 184 0;
#X obj 1677 225 tgl 15 0 empty empty empty 17 7 0 10 -262144 -1 -1
0 1;
#X msg 1697 205 1;
#X msg 1725 210 0;
#X obj 1728 263 tgl 15 0 empty empty empty 17 7 0 10 -262144 -1 -1
0 4;
#X msg 1748 243 1;
#X msg 1776 248 0;
#X msg 1538 -35 0;
#X obj 721 569 line;
#X obj 1539 461 *~ 0.05;
#X obj 1482 464 *~ 0.05;
#X obj 880 673 hsl 128 15 0 0.2 0 1 empty empty empty -2 -8 0 10 -262144
-1 -1 808 1;
#N canvas 53 122 809 626 txiki166 0;
#X obj 127 107 *~ 0;
#X obj 160 93 hsl 128 15 0 1 0 0 empty empty Volume_0-1 -2 -6 0 8 -262144
-1 -1 5080 1;
#X obj 208 -17 line~;
#X obj 88 19 *~;
#X obj 88 -12 osc~;
#X obj 88 -50 line~;
#X msg 137 -48 0.5;
#X obj 219 221 outlet~;
#X obj 383 -131 loadbang;
#X obj 342 -45 bng 15 250 50 0 empty empty empty 17 7 0 10 -262144
-1 -1;
#X obj 357 -116 bng 15 250 50 0 empty empty empty 17 7 0 10 -262144
-1 -1;
#X obj 415 58 hradio 15 1 0 13 empty empty empty 0 -8 0 10 -262144
-1 -1 2;
#X obj 79 -163 bng 15 250 11 1 empty empty empty 0 -6 0 8 -241291 -1
-1;
#X obj 109 -196 bng 15 250 50 0 empty empty empty 17 7 0 10 -262144
-1 -1;
#X obj 557 -136 bng 15 250 50 0 empty empty empty 17 7 0 10 -262144
-1 -1;
#X obj 202 166 *~ 0;
#X obj 341 135 inlet;
#X obj 246 -204 bng 15 250 50 0 empty empty empty 0 -6 0 8 -241291
-1 -1;
#X obj -114 180 *~ 0;
#X obj -81 166 hsl 128 15 0 1 0 0 empty empty Volume_0-1 -2 -6 0 8
-262144 -1 -1 5080 1;
#X obj -22 294 outlet~;
#X obj -39 239 *~ 0;
#X obj 100 208 inlet;
#X obj -32 106 line~;
#X obj -152 142 *~;
#X obj -152 111 osc~;
#X obj -152 73 line~;
#X msg -103 75 0.5;
#X obj 6 -81 bng 15 250 50 0 empty empty empty 0 -6 0 8 -241291 -1
-1;
#X obj 395 -259 random 4;
#X obj 395 -230 sel 0;
#X msg 392 -192 1;
#X obj 427 -166 spigot;
#X obj 482 -174 tgl 15 0 empty empty empty 17 7 0 10 -262144 -1 -1
1 1;
#X obj -59 -255 random 4;
#X obj -59 -226 sel 0;
#X msg -62 -188 1;
#X obj -27 -162 spigot;
#X obj 28 -170 tgl 15 0 empty empty empty 17 7 0 10 -262144 -1 -1 1
1;
#X msg 46 -109 55.4 \, 27.7 333;
#X msg -149 48 83 \, 27.7 333;
#X msg 426 -191 1;
#X msg -28 -187 1;
#X obj 390 -97 metro 166;
#X obj 420 11 counter 1;
#X obj 411 35 + 1;
#X obj 440 84 / 5;
#X obj 310 25 sel 0 1 2 3 6 7;
#X obj 454 -133 r metro166;
#X obj 344 -18 counter 7;
#X msg 10 72 1 \, 0 720;
#X msg 177 -50 1 \, 0 720;
#X obj 69 289 *~ 1;
#X obj -55 205 *~ 0.8;
#X obj 187 133 *~ 0.8;
#X obj 120 168 *~ 0.6;
#X obj 63 145 *~ 0.6;
#X connect 0 0 54 0;
#X connect 1 0 0 1;
#X connect 1 0 19 0;
#X connect 2 0 3 1;
#X connect 3 0 0 0;
#X connect 4 0 3 0;
#X connect 5 0 4 0;
#X connect 6 0 4 1;
#X connect 8 0 43 0;
#X connect 9 0 29 0;
#X connect 9 0 34 0;
#X connect 9 0 49 0;
#X connect 10 0 43 0;
#X connect 11 0 46 0;
#X connect 12 0 39 0;
#X connect 12 0 6 0;
#X connect 12 0 51 0;
#X connect 13 0 12 0;
#X connect 14 0 32 0;
#X connect 15 0 7 0;
#X connect 16 0 15 1;
#X connect 17 0 37 0;
#X connect 17 0 13 0;
#X connect 19 0 18 1;
#X connect 21 0 20 0;
#X connect 22 0 21 1;
#X connect 23 0 24 1;
#X connect 24 0 18 0;
#X connect 24 0 53 0;
#X connect 25 0 24 0;
#X connect 26 0 25 0;
#X connect 27 0 25 1;
#X connect 28 0 50 0;
#X connect 28 0 40 0;
#X connect 28 0 27 0;
#X connect 29 0 30 0;
#X connect 30 0 41 0;
#X connect 30 1 31 0;
#X connect 31 0 33 0;
#X connect 32 0 13 0;
#X connect 33 0 32 1;
#X connect 34 0 35 0;
#X connect 35 0 42 0;
#X connect 35 1 36 0;
#X connect 36 0 38 0;
#X connect 37 0 28 0;
#X connect 38 0 37 1;
#X connect 39 0 5 0;
#X connect 40 0 26 0;
#X connect 41 0 33 0;
#X connect 42 0 38 0;
#X connect 44 0 45 0;
#X connect 45 0 11 0;
#X connect 46 0 1 0;
#X connect 47 0 44 0;
#X connect 47 1 17 0;
#X connect 47 4 17 0;
#X connect 47 5 14 0;
#X connect 48 0 9 0;
#X connect 49 0 47 0;
#X connect 50 0 23 0;
#X connect 51 0 2 0;
#X connect 53 0 21 0;
#X connect 53 0 55 0;
#X connect 54 0 15 0;
#X connect 54 0 56 0;
#X connect 55 0 15 0;
#X connect 56 0 53 0;
#X restore 1586 383 pd txiki166;
#X msg 791 -497 27.7;
#X obj 828 -516 t b f;
#X obj 833 -492 * 1;
#X obj 829 -466 nbx 5 14 -1e+37 1e+37 0 0 empty empty empty 0 -8 0
10 -262144 -1 -1 27.7 256 0;
#X msg 825 -544 1;
#X obj 817 -568 loadbang;
#X msg 897 -520 27.7;
#X obj 934 -539 t b f;
#X obj 935 -489 nbx 5 14 -1e+37 1e+37 0 0 empty empty empty 0 -8 0
10 -262144 -1 -1 83.1 256 0;
#X obj 923 -591 loadbang;
#X msg 931 -567 3;
#X obj 938 -516 *;
#X msg 1008 -518 27.7;
#X obj 1045 -537 t b f;
#X obj 1046 -487 nbx 5 14 -1e+37 1e+37 0 0 empty empty empty 0 -8 0
10 -262144 -1 -1 110.8 256 0;
#X obj 1034 -589 loadbang;
#X obj 1049 -514 *;
#X msg 1042 -565 4;
#X msg 1128 -523 27.7;
#X obj 1165 -542 t b f;
#X obj 1166 -492 nbx 5 14 -1e+37 1e+37 0 0 empty empty empty 0 -8 0
10 -262144 -1 -1 166.2 256 0;
#X obj 1154 -594 loadbang;
#X obj 1169 -519 *;
#X msg 1162 -570 6;
#X msg 1350 -527 27.7;
#X obj 1387 -546 t b f;
#X obj 1388 -496 nbx 5 14 -1e+37 1e+37 0 0 empty empty empty 0 -8 0
10 -262144 -1 -1 332.4 256 0;
#X obj 1376 -598 loadbang;
#X obj 1391 -523 *;
#X msg 1384 -574 12;
#X msg 1241 -516 27.7;
#X obj 1278 -535 t b f;
#X obj 1279 -485 nbx 5 14 -1e+37 1e+37 0 0 empty empty empty 0 -8 0
10 -262144 -1 -1 249.3 256 0;
#X obj 1267 -587 loadbang;
#X obj 1282 -512 *;
#X msg 1275 -563 9;
#X obj 1673 507 tgl 15 1 empty empty empty 17 7 0 10 -262144 -1 -1
0 1;
#N canvas 9 120 636 525 txiki333 0;
#X obj 127 107 *~ 0;
#X obj 160 93 hsl 128 15 0 1 0 0 empty empty Volume_0-1 -2 -6 0 8 -262144
-1 -1 0 1;
#X obj 208 -17 line~;
#X obj 88 19 *~;
#X obj 246 -204 bng 15 250 50 0 empty empty empty 0 -6 0 8 -241291
-1 -1;
#X obj 88 -12 osc~;
#X obj 88 -50 line~;
#X msg 137 -48 0.5;
#X obj 219 221 outlet~;
#X obj 396 -161 loadbang;
#X obj 344 -43 bng 15 250 50 0 empty empty empty 17 7 0 10 -262144
-1 -1;
#X msg 89 -73 83 \, 27.7 333;
#X obj 400 -125 metro 333;
#X obj 370 -146 bng 15 250 50 0 empty empty empty 17 7 0 10 -262144
-1 -1;
#X obj 343 -18 counter 12;
#X obj 339 12 sel 1 2 5 7 8 10 11;
#X obj 415 58 hradio 15 1 0 13 empty empty empty 0 -8 0 10 -262144
-1 -1 0;
#X obj 440 84 / 10;
#X obj 124 -274 tgl 15 0 empty empty empty 17 7 0 10 -262144 -1 -1
0 6;
#X obj 109 -254 sel 1 0;
#X obj 75 -169 bng 15 250 50 0 empty empty empty 0 -6 0 8 -241291 -1
-1;
#X msg 177 -50 1 \, 0 1111;
#X obj 109 -196 bng 15 250 50 0 empty empty empty 17 7 0 10 -262144
-1 -1;
#X obj 470 25 bng 15 250 50 0 empty empty empty 17 7 0 10 -262144 -1
-1;
#X obj 212 187 *~ 0;
#X obj 341 135 inlet;
#X msg 250 -52 1 \, 0 1000;
#X obj 436 -75 r metro333;
#X msg 46 -109 55.4 \, 27.7 333;
#X obj 202 140 *~ 0.5;
#X connect 0 0 29 0;
#X connect 1 0 0 1;
#X connect 2 0 3 1;
#X connect 3 0 0 0;
#X connect 4 0 26 0;
#X connect 4 0 11 0;
#X connect 4 0 7 0;
#X connect 5 0 3 0;
#X connect 6 0 5 0;
#X connect 7 0 5 1;
#X connect 9 0 12 0;
#X connect 10 0 14 0;
#X connect 11 0 6 0;
#X connect 13 0 12 0;
#X connect 14 0 15 0;
#X connect 14 0 16 0;
#X connect 15 4 4 0;
#X connect 15 6 4 0;
#X connect 15 7 23 0;
#X connect 16 0 17 0;
#X connect 17 0 1 0;
#X connect 18 0 19 0;
#X connect 19 1 22 0;
#X connect 20 0 28 0;
#X connect 20 0 7 0;
#X connect 20 0 21 0;
#X connect 21 0 2 0;
#X connect 22 0 20 0;
#X connect 23 0 18 0;
#X connect 24 0 8 0;
#X connect 25 0 24 1;
#X connect 26 0 2 0;
#X connect 27 0 10 0;
#X connect 28 0 6 0;
#X connect 29 0 24 0;
#X restore 1474 194 pd txiki333;
#N canvas 183 116 1011 632 txiki250 0;
#X obj 114 126 *~ 0;
#X obj 160 93 hsl 128 15 0 1 0 0 empty empty Volume_0-1 -2 -6 0 8 -262144
-1 -1 6350 1;
#X obj 208 -17 line~;
#X obj 88 19 *~;
#X obj 88 -12 osc~;
#X obj 88 -50 line~;
#X msg 137 -48 0.5;
#X obj 219 221 outlet~;
#X obj 338 -107 loadbang;
#X obj 342 -45 bng 15 250 50 0 empty empty empty 17 7 0 10 -262144
-1 -1;
#X obj 312 -92 bng 15 250 50 0 empty empty empty 17 7 0 10 -262144
-1 -1;
#X obj 415 58 hradio 15 1 0 13 empty empty empty 0 -8 0 10 -262144
-1 -1 2;
#X obj 79 -163 bng 15 250 11 1 empty empty empty 0 -6 0 8 -241291 -1
-1;
#X obj 109 -196 bng 15 250 50 0 empty empty empty 17 7 0 10 -262144
-1 -1;
#X obj 557 -136 bng 15 250 50 0 empty empty empty 17 7 0 10 -262144
-1 -1;
#X obj 202 166 *~ 0;
#X obj 341 135 inlet;
#X obj 246 -204 bng 15 250 50 0 empty empty empty 0 -6 0 8 -241291
-1 -1;
#X obj -22 294 outlet~;
#X obj -39 239 *~ 0;
#X obj 100 208 inlet;
#X obj -32 106 line~;
#X obj -152 142 *~;
#X obj -152 111 osc~;
#X obj -166 14 line~;
#X msg -117 16 0.5;
#X obj 6 -81 bng 15 250 50 0 empty empty empty 0 -6 0 8 -241291 -1
-1;
#X obj 395 -259 random 4;
#X obj 395 -230 sel 0;
#X msg 392 -192 1;
#X obj 427 -166 spigot;
#X obj 482 -174 tgl 15 0 empty empty empty 17 7 0 10 -262144 -1 -1
0 1;
#X obj -59 -226 sel 0;
#X msg -62 -188 1;
#X obj -27 -162 spigot;
#X obj 28 -170 tgl 15 0 empty empty empty 17 7 0 10 -262144 -1 -1 1
1;
#X msg 426 -191 1;
#X msg -28 -187 1;
#X obj 334 -87 metro 166;
#X obj 420 11 counter 1;
#X obj 411 35 + 1;
#X obj 310 25 sel 0 1 2 3 6 7;
#X obj 410 -109 r metro250;
#X obj -59 -255 random 2;
#X obj 467 -43 bng 15 250 50 0 empty empty empty 17 7 0 10 -262144
-1 -1;
#X obj 469 -16 counter 15;
#X obj 370 7 nbx 5 14 -1e+37 1e+37 0 0 empty empty empty 0 -8 0 10
-262144 -1 -1 2 256 0;
#X obj 289 282 hsl 60 23 0 1 0 1 empty empty Volume_0-1 -2 -6 0 8 -262144
-1 -1 1700 1;
#N canvas 112 410 494 345 kikk-_-! 0;
#X obj 127 107 *~ 0;
#X obj 160 93 hsl 128 15 0 1 0 0 empty empty Volume_0-1 -2 -6 0 8 -262144
-1 -1 3659 1;
#X obj 208 -17 line~;
#X obj 88 19 *~;
#X obj 204 -119 bng 15 250 50 0 empty empty empty 0 -6 0 8 -241291
-1 -1;
#X obj 88 -12 osc~;
#X obj 88 -50 line~;
#X msg 137 -48 0.5;
#X obj 266 76 inlet;
#X obj 158 -146 inlet;
#X msg 208 -41 1 \, 0 555;
#X msg 88 -73 14220 \, 40 20;
#X obj 119 134 outlet~;
#X connect 0 0 12 0;
#X connect 1 0 0 1;
#X connect 2 0 3 1;
#X connect 3 0 0 0;
#X connect 4 0 10 0;
#X connect 4 0 11 0;
#X connect 4 0 7 0;
#X connect 5 0 3 0;
#X connect 6 0 5 0;
#X connect 7 0 5 1;
#X connect 8 0 1 0;
#X connect 9 0 4 0;
#X connect 10 0 2 0;
#X connect 11 0 6 0;
#X restore 222 308 pd kikk-_-!;
#X obj 223 284 bng 23 250 50 0 empty empty empty 17 7 0 10 -208905
-1 -1;
#X obj 465 267 hsl 60 23 0 1 0 1 empty empty Volume_0-1 -2 -6 0 8 -262144
-1 -1 3600 1;
#N canvas 593 207 494 345 kikk-_-! 0;
#X obj 127 107 *~ 0;
#X obj 160 93 hsl 128 15 0 1 0 0 empty empty Volume_0-1 -2 -6 0 8 -262144
-1 -1 7749 1;
#X obj 208 -17 line~;
#X obj 88 19 *~;
#X obj 204 -119 bng 15 250 50 0 empty empty empty 0 -6 0 8 -241291
-1 -1;
#X obj 88 -12 osc~;
#X obj 88 -50 line~;
#X msg 137 -48 0.5;
#X obj 266 76 inlet;
#X obj 158 -146 inlet;
#X obj 119 134 outlet~;
#X obj 24 -10 noise~;
#X msg 208 -41 1 \, 0 83;
#X msg 88 -73 9999 \, 720 360;
#X connect 0 0 10 0;
#X connect 1 0 0 1;
#X connect 2 0 3 1;
#X connect 3 0 0 0;
#X connect 4 0 12 0;
#X connect 4 0 13 0;
#X connect 4 0 7 0;
#X connect 5 0 3 0;
#X connect 6 0 5 0;
#X connect 7 0 5 1;
#X connect 8 0 1 0;
#X connect 9 0 4 0;
#X connect 11 0 3 0;
#X connect 12 0 2 0;
#X connect 13 0 6 0;
#X restore 398 293 pd kikk-_-!;
#X obj 399 269 bng 23 250 50 0 empty empty empty 17 7 0 10 -208905
-1 -1;
#X obj 465 160 bng 15 250 50 0 empty empty empty 17 7 0 10 -262144
-1 -1;
#X obj 467 187 counter 31;
#X obj 475 219 sel 27;
#X obj 507 107 sel 9;
#X obj 259 -227 bng 15 250 50 0 empty empty empty 0 -6 0 8 -241291
-1 -1;
#X msg 10 72 1 \, 0 4444;
#X obj 187 133 *~ 0.44;
#X msg -163 -11 166 \, 27.7 83;
#X msg -66 63 0.5;
#N canvas 95 87 957 484 delayerØ 0;
#X obj -7127 151 inlet~;
#X obj -7000 110 hsl 128 15 0 1111 0 0 empty empty empty -2 -8 0 10
-262144 -1 -1 3800 1;
#X obj -6953 202 outlet~;
#X msg -6773 262 27.7;
#X obj -6739 233 t b f;
#X obj -6727 279 *;
#X obj -6739 210 + 1;
#X obj -6753 179 hradio 15 1 0 13 empty empty empty 0 -8 0 10 -262144
-1 -1 11;
#X obj -6755 3 bng 15 250 50 0 empty empty empty 17 7 0 10 -262144
-1 -1;
#X obj -6715 -18 r mins;
#X obj -6743 309 nbx 5 14 -1e+37 1e+37 0 0 empty empty empty 0 -8 0
10 -262144 -1 -1 332.4 256 0;
#X obj -6762 20 counter 6;
#X obj -6791 -38 r realclockminsbased;
#X obj -7003 132 delread~ Ø250;
#X obj -7092 209 delwrite~ Ø250 1111;
#X msg -6995 309 2;
#X msg -7027 310 0;
#X msg -7060 315 11;
#X msg -6958 310 3;
#X msg -6927 310 5;
#X msg -6893 310 8;
#X obj -6740 37 sel 4 3 2 1 0;
#X obj -6476 193 hradio 15 1 0 13 empty empty empty 0 -8 0 10 -262144
-1 -1 0;
#X msg -6411 87 2;
#X msg -6380 87 3;
#X msg -6346 87 5;
#X msg -6513 92 8;
#X msg -6480 87 11;
#X obj -6463 51 sel 4 3 2 1 0;
#X msg -6448 86 1;
#X msg -6770 110 0;
#X msg -6738 109 2;
#X msg -6701 110 3;
#X msg -6670 110 5;
#X msg -6636 110 8;
#X msg -6804 115 11;
#X connect 0 0 14 0;
#X connect 1 0 13 0;
#X connect 3 0 5 0;
#X connect 4 0 3 0;
#X connect 4 1 5 1;
#X connect 5 0 10 0;
#X connect 6 0 4 0;
#X connect 7 0 6 0;
#X connect 8 0 11 0;
#X connect 9 0 8 0;
#X connect 10 0 1 0;
#X connect 11 0 21 0;
#X connect 12 0 8 0;
#X connect 13 0 2 0;
#X connect 21 0 30 0;
#X connect 21 1 31 0;
#X connect 21 2 32 0;
#X connect 21 3 33 0;
#X connect 21 4 34 0;
#X connect 21 5 35 0;
#X connect 23 0 22 0;
#X connect 24 0 22 0;
#X connect 25 0 22 0;
#X connect 26 0 22 0;
#X connect 27 0 22 0;
#X connect 28 0 27 0;
#X connect 28 1 29 0;
#X connect 28 2 23 0;
#X connect 28 4 25 0;
#X connect 28 5 26 0;
#X connect 29 0 22 0;
#X connect 30 0 7 0;
#X connect 31 0 7 0;
#X connect 32 0 7 0;
#X connect 33 0 7 0;
#X connect 34 0 7 0;
#X connect 35 0 7 0;
#X restore 13 114 pd delayerØ;
#X msg -118 64 55;
#X obj -141 205 *~ 0.44;
#X msg 121 -249 250 \, 27.7 55;
#X msg 129 -278 166 \, 27.7 55;
#X msg 121 -222 83 \, 27.7 55;
#X msg 220 -284 83 \, 55 55;
#X obj 152 58 *~ 0;
#X obj -88 164 *~ 0;
#X msg 177 -50 1 \, 0 2222;
#X msg 114 -135 111 \, 55 1440;
#X obj -21 261 *~ 3;
#X obj 193 196 *~ 3;
#X obj 344 -18 counter 8;
#X obj -14 157 *~ 0.2;
#X obj 440 84 / 4;
#X msg 45 -102 166 \, 27.7 55;
#X connect 0 0 15 0;
#X connect 0 0 19 0;
#X connect 1 0 0 1;
#X connect 1 0 69 1;
#X connect 1 0 70 1;
#X connect 2 0 3 1;
#X connect 3 0 62 0;
#X connect 3 0 69 0;
#X connect 4 0 3 0;
#X connect 5 0 4 0;
#X connect 6 0 4 1;
#X connect 8 0 38 0;
#X connect 9 0 43 0;
#X connect 9 0 44 0;
#X connect 9 0 53 0;
#X connect 9 0 75 0;
#X connect 10 0 38 0;
#X connect 11 0 77 0;
#X connect 12 0 6 0;
#X connect 12 0 71 0;
#X connect 12 0 78 0;
#X connect 13 0 12 0;
#X connect 14 0 30 0;
#X connect 15 0 74 0;
#X connect 16 0 15 1;
#X connect 17 0 13 0;
#X connect 19 0 73 0;
#X connect 20 0 19 1;
#X connect 21 0 22 1;
#X connect 22 0 70 0;
#X connect 23 0 22 0;
#X connect 24 0 23 0;
#X connect 26 0 58 0;
#X connect 26 0 60 0;
#X connect 26 0 25 0;
#X connect 26 0 63 0;
#X connect 26 0 61 0;
#X connect 27 0 28 0;
#X connect 28 0 36 0;
#X connect 28 1 29 0;
#X connect 29 0 31 0;
#X connect 30 0 13 0;
#X connect 31 0 30 1;
#X connect 32 0 37 0;
#X connect 32 1 33 0;
#X connect 33 0 35 0;
#X connect 34 0 26 0;
#X connect 35 0 34 1;
#X connect 36 0 31 0;
#X connect 37 0 35 0;
#X connect 39 0 40 0;
#X connect 40 0 11 0;
#X connect 41 0 39 0;
#X connect 41 1 57 0;
#X connect 41 4 17 0;
#X connect 41 5 14 0;
#X connect 42 0 9 0;
#X connect 43 0 32 0;
#X connect 44 0 45 0;
#X connect 45 0 56 0;
#X connect 47 0 48 1;
#X connect 48 0 0 0;
#X connect 49 0 48 0;
#X connect 50 0 51 1;
#X connect 51 0 0 0;
#X connect 52 0 51 0;
#X connect 53 0 54 0;
#X connect 54 0 55 0;
#X connect 55 0 52 0;
#X connect 56 0 49 0;
#X connect 57 0 34 0;
#X connect 58 0 21 0;
#X connect 59 0 15 0;
#X connect 60 0 24 0;
#X connect 61 0 23 1;
#X connect 62 0 76 0;
#X connect 64 0 19 0;
#X connect 69 0 59 0;
#X connect 70 0 64 0;
#X connect 71 0 2 0;
#X connect 73 0 18 0;
#X connect 74 0 7 0;
#X connect 75 0 41 0;
#X connect 75 0 46 0;
#X connect 76 0 19 0;
#X connect 77 0 1 0;
#X connect 78 0 5 0;
#X restore 1624 539 pd txiki250;
#X obj 694 1225 /;
#X obj 444 402 sel 0;
#X msg 463 427 0;
#X obj 301 -469 loadbang;
#X msg 320 -433 1;
#X msg 355 -440 0;
#X obj 944 643 s mins;
#X obj 552 -650 bng 15 250 50 0 empty empty empty 17 7 0 10 -262144
-1 -1;
#X obj 672 -650 r mins;
#X obj 555 -613 counter 12;
#X obj 1070 -399 loadbang;
#X obj 1138 -303 counter 2;
#X obj 1103 -360 metro;
#X msg 1133 -383 27.7;
#X obj 1049 -299 s metro27;
#X obj 1063 -171 s metro83;
#X obj 1174 -169 s metro111;
#X obj 1294 -174 s metro166;
#X obj 1516 -179 s metro333;
#X obj 1407 -167 s metro250;
#X obj 1131 -324 bng 15 250 50 0 empty empty empty 17 7 0 10 -262144
-1 -1;
#X obj 1137 -276 sel 0;
#X obj 1054 -356 bng 15 250 50 0 empty empty empty 17 7 0 10 -262144
-1 -1;
#X obj 1125 -246 bng 15 250 50 0 empty empty empty 17 7 0 10 -262144
-1 -1;
#X obj 1205 -322 bng 15 250 50 0 empty empty empty 17 7 0 10 -262144
-1 -1;
#X obj 1211 -274 sel 0;
#X obj 1199 -244 bng 15 250 50 0 empty empty empty 17 7 0 10 -262144
-1 -1;
#X obj 1212 -301 counter 3;
#X obj 1280 -325 bng 15 250 50 0 empty empty empty 17 7 0 10 -262144
-1 -1;
#X obj 1286 -277 sel 0;
#X obj 1274 -247 bng 15 250 50 0 empty empty empty 17 7 0 10 -262144
-1 -1;
#X obj 1354 -323 bng 15 250 50 0 empty empty empty 17 7 0 10 -262144
-1 -1;
#X obj 1360 -275 sel 0;
#X obj 1348 -245 bng 15 250 50 0 empty empty empty 17 7 0 10 -262144
-1 -1;
#X obj 1287 -306 counter 4;
#X obj 1361 -302 counter 5;
#X obj 827 -414 s metro27;
#X obj 941 -440 s metro83;
#X obj 1052 -438 s metro111;
#X obj 1172 -443 s metro166;
#X obj 1394 -448 s metro333;
#X obj 1285 -436 s metro250;
#X obj 1447 -326 bng 15 250 50 0 empty empty empty 17 7 0 10 -262144
-1 -1;
#X obj 1453 -278 sel 0;
#X obj 1441 -248 bng 15 250 50 0 empty empty empty 17 7 0 10 -262144
-1 -1;
#X obj 1454 -305 counter 8;
#X obj 1573 -344 bng 15 250 50 0 empty empty empty 17 7 0 10 -262144
-1 -1;
#X obj 1579 -296 sel 0;
#X obj 1567 -266 bng 15 250 50 0 empty empty empty 17 7 0 10 -262144
-1 -1;
#X obj 1580 -323 counter 11;
#X obj 2080 202 hradio 15 1 1 13 empty empty empty 0 -8 0 10 -262144
-1 -1 9;
#X obj 2088 139 bng 15 250 50 0 empty empty empty 17 7 0 10 -262144
-1 -1;
#X obj 2111 143 r mins;
#X obj 2091 176 counter 12;
#X msg 2026 262 1;
#X msg 2057 261 0;
#X obj 2045 296 tgl 34 0 empty empty empty 17 7 0 10 -13330 -4032 -1
0 1;
#X msg 2094 265 1;
#X msg 2125 264 0;
#X obj 2113 299 tgl 34 0 empty empty empty 17 7 0 10 -13330 -4032 -1
0 1;
#X obj 2104 238 sel 3 4;
#X msg 2163 264 1;
#X msg 2194 263 0;
#X obj 2180 295 tgl 34 0 empty empty empty 17 7 0 10 -13330 -4032 -1
0 1;
#X obj 2173 237 sel 4 5;
#X msg 2233 263 1;
#X msg 2264 262 0;
#X obj 2252 297 tgl 34 0 empty empty empty 17 7 0 10 -13330 -4032 -1
0 1;
#X obj 2243 236 sel 6 7;
#X msg 2313 263 1;
#X msg 2344 262 0;
#X obj 2332 297 tgl 34 0 empty empty empty 17 7 0 10 -13330 -4032 -1
1 1;
#X msg 2383 262 1;
#X msg 2414 261 0;
#X obj 2402 296 tgl 34 0 empty empty empty 17 7 0 10 -13330 -4032 -1
0 1;
#X obj 2323 236 sel 9 10;
#X obj 2391 236 sel 12 0;
#X obj 2036 235 sel 0 1;
#X obj 2076 404 hradio 15 1 1 13 empty empty empty 0 -8 0 10 -262144
-1 -1 9;
#X obj 2084 341 bng 15 250 50 0 empty empty empty 17 7 0 10 -262144
-1 -1;
#X obj 2107 345 r mins;
#X obj 2087 378 counter 12;
#X msg 2022 464 1;
#X msg 2053 463 0;
#X obj 2041 498 tgl 34 0 empty empty empty 17 7 0 10 -13330 -4032 -1
0 1;
#X msg 2090 467 1;
#X msg 2121 466 0;
#X obj 2109 501 tgl 34 0 empty empty empty 17 7 0 10 -13330 -4032 -1
0 1;
#X msg 2159 466 1;
#X msg 2190 465 0;
#X obj 2178 500 tgl 34 0 empty empty empty 17 7 0 10 -13330 -4032 -1
0 1;
#X msg 2229 465 1;
#X msg 2260 464 0;
#X obj 2245 504 tgl 34 0 empty empty empty 17 7 0 10 -13330 -4032 -1
0 1;
#X msg 2309 465 1;
#X msg 2340 464 0;
#X obj 2328 499 tgl 34 0 empty empty empty 17 7 0 10 -13330 -4032 -1
1 1;
#X msg 2379 464 1;
#X msg 2410 463 0;
#X obj 2396 495 tgl 34 0 empty empty empty 17 7 0 10 -13330 -4032 -1
0 1;
#X obj 1528 853 *~;
#X obj 810 1192 nbx 5 14 -1e+37 1e+37 0 0 empty empty empty 0 -8 0
10 -262144 -1 -1 221.6 256 0;
#X obj 868 1171 t b f;
#X obj 868 1147 hradio 15 1 1 4 empty empty empty 0 -8 0 10 -262144
-1 -1 2;
#X obj 889 1215 nbx 5 14 -1e+37 1e+37 0 0 empty empty empty 0 -8 0
10 -262144 -1 -1 443.2 256 0;
#X obj 918 1088 demux 0 1;
#X obj 973 1062 hradio 15 1 1 2 empty empty empty 0 -8 0 10 -262144
-1 -1 1;
#X obj 880 1194 *;
#X obj 1263 1060 hsl 128 15 0 0.2 0 1 empty empty empty -2 -8 0 10
-262144 -1 -1 400 1;
#X obj 1312 1084 nbx 5 14 -1e+37 1e+37 0 0 empty empty empty 0 -8 0
10 -262144 -1 -1 0.00629921 256 0;
#N canvas 634 192 550 571 gravityatractors 0;
#X obj 84 5 metro 50;
#X obj 84 -19 tgl 15 0 empty empty empty 20 8 0 8 -262144 -1 -1 1 1
;
#X floatatom 135 -20 5 0 0 0 - - -, f 5;
#X obj 78 121 lorenz;
#X floatatom 123 229 5 0 0 0 - - -, f 5;
#X msg 164 138 param 0.02 10 28 2.667;
#X text 162 105 Reset To Initial Conditions;
#X text 164 156 Modify Parameters;
#X floatatom 78 229 5 0 0 0 - - -, f 5;
#X floatatom 169 229 5 0 0 0 - - -, f 5;
#X text 107 202 Output;
#X msg 163 87 reset 0.1 0 0;
#X obj 24 28 r quick2;
#X obj 219 42 loadbang;
#X obj -5 0 r quick;
#X obj 16 113 bng 15 250 50 0 empty empty empty 17 7 0 10 -262144 -1
-1;
#X obj 116 362 hsl 128 15 -44 44 0 0 empty empty empty -2 -8 0 10 -262144
-1 -1 0 1;
#X obj 131 328 line;
#X obj 115 419 hsl 128 15 -1 1 0 0 empty empty empty -2 -8 0 10 -262144
-1 -1 0 1;
#X obj 159 392 / 100;
#X obj 165 438 nbx 5 14 -1e+37 1e+37 0 0 empty empty empty 0 -8 0 10
-262144 -1 -1 0 256 0;
#X obj 243 479 outlet;
#X obj 183 457 abs;
#X msg 159 299 \$1 10000;
#X connect 0 0 3 0;
#X connect 1 0 0 0;
#X connect 2 0 0 1;
#X connect 3 0 8 0;
#X connect 3 1 4 0;
#X connect 3 2 9 0;
#X connect 4 0 23 0;
#X connect 5 0 3 0;
#X connect 11 0 3 0;
#X connect 12 0 15 0;
#X connect 13 0 11 0;
#X connect 13 0 1 0;
#X connect 14 0 15 0;
#X connect 16 0 19 0;
#X connect 17 0 16 0;
#X connect 18 0 20 0;
#X connect 19 0 18 0;
#X connect 20 0 22 0;
#X connect 22 0 21 0;
#X connect 23 0 17 0;
#X restore 1296 1103 pd gravityatractors;
#X obj 285 -429 tgl 15 0 empty empty empty 17 7 0 10 -262144 -1 -1
1 1;
#X obj 2119 658 sel 0;
#X obj 2052 873 bng 83 250 50 1 empty empty empty 17 7 0 10 -262144
-1 -1;
#X obj 2060 971 s initcicle;
#X obj 1016 1132 r initcicle;
#X obj 1015 1166 tgl 15 0 empty empty empty 17 7 0 10 -262144 -1 -1
1 1;
#X obj 701 705 r initcicle;
#X obj 704 738 counter 3;
#X obj 1456 973 hsl 128 15 0 0.8 0 1 empty empty empty -2 -8 0 10 -262144
-1 -1 202 1;
#X obj 1505 997 nbx 5 14 -1e+37 1e+37 0 0 empty empty empty 0 -8 0
10 -262144 -1 -1 0.0127244 256 0;
#N canvas 634 192 550 571 gravityatractors 0;
#X obj 84 5 metro 50;
#X obj 84 -19 tgl 15 0 empty empty empty 20 8 0 8 -262144 -1 -1 1 1
;
#X floatatom 135 -20 5 0 0 0 - - -, f 5;
#X obj 78 121 lorenz;
#X floatatom 123 229 5 0 0 0 - - -, f 5;
#X msg 164 138 param 0.02 10 28 2.667;
#X text 162 105 Reset To Initial Conditions;
#X text 164 156 Modify Parameters;
#X floatatom 78 229 5 0 0 0 - - -, f 5;
#X floatatom 169 229 5 0 0 0 - - -, f 5;
#X text 107 202 Output;
#X msg 163 87 reset 0.1 0 0;
#X obj 24 28 r quick2;
#X obj 219 42 loadbang;
#X obj -5 0 r quick;
#X obj 16 113 bng 15 250 50 0 empty empty empty 17 7 0 10 -262144 -1
-1;
#X obj 116 362 hsl 128 15 -44 44 0 0 empty empty empty -2 -8 0 10 -262144
-1 -1 0 1;
#X obj 131 328 line;
#X obj 165 438 nbx 5 14 -1e+37 1e+37 0 0 empty empty empty 0 -8 0 10
-262144 -1 -1 0 256 0;
#X obj 243 479 outlet;
#X obj 183 457 abs;
#X msg 159 299 \$1 10000;
#X obj 159 392 / 50;
#X connect 0 0 3 0;
#X connect 1 0 0 0;
#X connect 2 0 0 1;
#X connect 3 0 8 0;
#X connect 3 1 4 0;
#X connect 3 2 9 0;
#X connect 4 0 21 0;
#X connect 5 0 3 0;
#X connect 11 0 3 0;
#X connect 12 0 15 0;
#X connect 13 0 11 0;
#X connect 13 0 1 0;
#X connect 14 0 15 0;
#X connect 16 0 22 0;
#X connect 17 0 16 0;
#X connect 18 0 20 0;
#X connect 20 0 19 0;
#X connect 21 0 17 0;
#X connect 22 0 18 0;
#X restore 1489 1016 pd gravityatractors;
#X msg 885 720 \$1 10000;
#X obj 943 741 hsl 128 15 0 0.2 0 1 empty empty empty -2 -8 0 10 -262144
-1 -1 1616 1;
#X obj 896 806 line;
#X obj -2 729 hsl 128 15 0 0.8 0 1 empty empty empty -2 -8 0 10 -262144
-1 -1 0 1;
#X obj 47 753 nbx 5 14 -1e+37 1e+37 0 0 empty empty empty 0 -8 0 10
-262144 -1 -1 0 256 0;
#N canvas 530 160 550 571 gravityatractors 0;
#X obj 84 -19 tgl 15 0 empty empty empty 20 8 0 8 -262144 -1 -1 1 1
;
#X floatatom 135 -20 5 0 0 0 - - -, f 5;
#X obj 78 121 lorenz;
#X floatatom 123 229 5 0 0 0 - - -, f 5;
#X msg 164 138 param 0.02 10 28 2.667;
#X text 162 105 Reset To Initial Conditions;
#X text 164 156 Modify Parameters;
#X floatatom 78 229 5 0 0 0 - - -, f 5;
#X floatatom 169 229 5 0 0 0 - - -, f 5;
#X text 107 202 Output;
#X msg 163 87 reset 0.1 0 0;
#X obj 24 28 r quick2;
#X obj 219 42 loadbang;
#X obj -5 0 r quick;
#X obj 16 113 bng 15 250 50 0 empty empty empty 17 7 0 10 -262144 -1
-1;
#X obj 116 362 hsl 128 15 -44 44 0 0 empty empty empty -2 -8 0 10 -262144
-1 -1 0 1;
#X obj 131 328 line;
#X obj 165 438 nbx 5 14 -1e+37 1e+37 0 0 empty empty empty 0 -8 0 10
-262144 -1 -1 0 256 0;
#X obj 243 479 outlet;
#X obj 183 457 max 0;
#X obj 84 5 metro 83;
#X msg 159 299 \$1 20000;
#X obj 159 392 / 34;
#X connect 0 0 20 0;
#X connect 1 0 20 1;
#X connect 2 0 7 0;
#X connect 2 1 3 0;
#X connect 2 2 8 0;
#X connect 3 0 21 0;
#X connect 4 0 2 0;
#X connect 10 0 2 0;
#X connect 11 0 14 0;
#X connect 12 0 10 0;
#X connect 12 0 0 0;
#X connect 13 0 14 0;
#X connect 15 0 22 0;
#X connect 16 0 15 0;
#X connect 17 0 19 0;
#X connect 19 0 18 0;
#X connect 20 0 2 0;
#X connect 21 0 16 0;
#X connect 22 0 17 0;
#X restore -4 887 pd gravityatractors;
#X obj 1611 440 tgl 15 1 empty empty empty 17 7 0 10 -262144 -1 -1
0 1;
#N canvas 12 115 636 525 txiki333 0;
#X obj 127 107 *~ 0;
#X obj 160 93 hsl 128 15 0 1 0 0 empty empty Volume_0-1 -2 -6 0 8 -262144
-1 -1 6350 1;
#X obj 208 -17 line~;
#X obj 88 19 *~;
#X obj 88 -12 osc~;
#X obj 88 -50 line~;
#X msg 137 -48 0.5;
#X obj 219 221 outlet~;
#X obj 396 -161 loadbang;
#X obj 344 -43 bng 15 250 50 0 empty empty empty 17 7 0 10 -262144
-1 -1;
#X obj 400 -125 metro 333;
#X obj 370 -146 bng 15 250 50 0 empty empty empty 17 7 0 10 -262144
-1 -1;
#X obj 415 58 hradio 15 1 0 13 empty empty empty 0 -8 0 10 -262144
-1 -1 1;
#X obj 75 -169 bng 15 250 50 0 empty empty empty 0 -6 0 8 -241291 -1
-1;
#X obj 212 187 *~ 0;
#X obj 341 135 inlet;
#X obj 436 -75 r metro333;
#X msg 46 -109 55.4 \, 27.7 333;
#X obj 339 12 sel 1 2 5 7 8 10 11;
#X obj 343 -18 counter 1;
#X obj 446 -35 tgl 15 0 empty empty empty 17 7 0 10 -262144 -1 -1 1
1;
#X obj 494 -8 sel 1;
#X obj 440 84 / 2;
#X msg 177 -50 1 \, 0 2222;
#X obj 202 142 *~ 2;
#X connect 0 0 24 0;
#X connect 1 0 0 1;
#X connect 2 0 3 1;
#X connect 3 0 0 0;
#X connect 4 0 3 0;
#X connect 5 0 4 0;
#X connect 6 0 4 1;
#X connect 8 0 10 0;
#X connect 9 0 19 0;
#X connect 11 0 10 0;
#X connect 12 0 22 0;
#X connect 13 0 17 0;
#X connect 13 0 6 0;
#X connect 13 0 23 0;
#X connect 14 0 7 0;
#X connect 15 0 14 1;
#X connect 16 0 9 0;
#X connect 16 0 20 0;
#X connect 17 0 5 0;
#X connect 19 0 18 0;
#X connect 19 0 12 0;
#X connect 20 0 21 0;
#X connect 21 0 13 0;
#X connect 22 0 1 0;
#X connect 23 0 2 0;
#X connect 24 0 14 0;
#X restore 1605 462 pd txiki333;
#X obj 2319 438 sel 9 0;
#X obj 2387 438 sel 12 1;
#X msg 2246 611 1;
#X msg 2277 610 0;
#X obj 2307 570 sel 1 3;
#X obj 602 -776 r initcicle;
#X obj 611 -747 bng 83 250 50 1 empty empty empty 17 7 0 10 -262144
-1 -1;
#X obj 1806 406 *~ 20;
#X obj 1821 649 env~;
#X obj 1476 729 nbx 5 14 -1e+37 1e+37 0 0 empty empty empty 0 -8 0
10 -262144 -1 -1 0 256 0;
#X msg 2111 703 \$1 1440;
#X obj 2121 730 line;
#X obj 1585 860 * 5;
#X obj 1886 272 loadbang;
#X msg 1900 300 0;
#X obj 1023 414 *~ 0.1;
#X obj 1397 305 *~ 0.3;
#X obj 643 650 autoscale 0 0.02;
#X obj 2239 438 sel 6 9;
#X obj 2169 439 sel 4 7;
#X obj 2100 440 sel 3 5;
#X obj 2032 437 sel 0 3;
#X msg 139 509 12;
#X msg 175 522 5;
#X obj 294 683 * 4;
#X obj 192 712 hradio 15 1 1 12 empty empty empty 0 -8 0 10 -262144
-1 -1 4;
#N canvas 153 133 1057 619 analyze 0;
#X obj 95 69 inlet~;
#X obj 459 232 unpack;
#X floatatom 459 282 0 0 0 0 - - -;
#X floatatom 473 259 0 0 0 0 - - -;
#X obj 459 192 route 1 2 3 4;
#X obj 542 232 unpack;
#X floatatom 542 282 0 0 0 0 - - -;
#X floatatom 556 259 0 0 0 0 - - -;
#X obj 626 232 unpack;
#X floatatom 626 282 0 0 0 0 - - -;
#X floatatom 640 259 0 0 0 0 - - -;
#X obj 317 232 unpack;
#X floatatom 317 282 0 0 0 0 - - -;
#X floatatom 331 259 0 0 0 0 - - -;
#X floatatom 394 282 0 0 0 0 - - -;
#X text 597 151 number of pitch outlets (1-3 \, default 1);
#X text 597 173 number of peaks to find (1-100 \, default 20);
#X text 597 195 number of peaks to output (default 0.);
#X obj 338 161 fiddle~ 1024 1 20 3;
#X text 466 306 individual sinusoidal components;
#X text 394 304 amplitude;
#X text 404 319 (dB);
#X text 317 304 raw pitch;
#X text 473 161 ------ arguments:;
#X obj 470 406 osc~;
#X obj 414 494 *~;
#X obj 567 500 *~;
#X obj 426 614 outlet~;
#X obj 553 610 outlet~;
#X obj 599 423 hsl 128 15 0 1 0 1 empty empty empty -2 -8 0 10 -262144
-1 -1 329 1;
#X obj 647 398 inlet;
#X obj 442 533 *~ 0.3;
#X obj 512 532 *~ 0.3;
#X obj 443 339 resample 27;
#X obj 524 338 resample 27;
#X obj 513 404 osc~;
#X obj 718 507 ead~ 0 0;
#X obj 651 574 *~;
#X floatatom 743 460 5 0 0 0 - - -, f 5;
#X floatatom 771 483 5 0 0 0 - - -, f 5;
#X obj 683 472 bng 15 250 50 0 empty empty empty 0 -6 0 8 -262144 -1
-1;
#X obj 628 340 bng 15 250 50 0 empty empty empty 17 7 0 10 -262144
-1 -1;
#X obj 284 451 ead~ 0 0;
#X obj 318 543 *~;
#X floatatom 309 404 5 0 0 0 - - -, f 5;
#X floatatom 337 427 5 0 0 0 - - -, f 5;
#X obj 249 416 bng 15 250 50 0 empty empty empty 0 -6 0 8 -262144 -1
-1;
#X connect 0 0 18 0;
#X connect 1 0 2 0;
#X connect 1 1 3 0;
#X connect 2 0 33 0;
#X connect 4 0 1 0;
#X connect 4 1 5 0;
#X connect 4 2 8 0;
#X connect 5 0 6 0;
#X connect 5 1 7 0;
#X connect 6 0 34 0;
#X connect 8 0 9 0;
#X connect 8 1 10 0;
#X connect 11 0 12 0;
#X connect 11 1 13 0;
#X connect 12 0 39 0;
#X connect 14 0 45 0;
#X connect 18 2 11 0;
#X connect 18 3 14 0;
#X connect 18 4 4 0;
#X connect 24 0 25 0;
#X connect 25 0 32 0;
#X connect 25 0 43 0;
#X connect 26 0 31 0;
#X connect 26 0 37 0;
#X connect 29 0 26 1;
#X connect 29 0 25 1;
#X connect 30 0 29 0;
#X connect 31 0 43 0;
#X connect 32 0 37 0;
#X connect 33 0 24 0;
#X connect 33 0 46 0;
#X connect 34 0 35 0;
#X connect 34 0 41 0;
#X connect 35 0 26 0;
#X connect 36 0 37 1;
#X connect 37 0 28 0;
#X connect 38 0 36 1;
#X connect 39 0 36 2;
#X connect 40 0 36 0;
#X connect 41 0 40 0;
#X connect 42 0 43 1;
#X connect 43 0 27 0;
#X connect 44 0 42 1;
#X connect 45 0 42 2;
#X connect 46 0 42 0;
#X restore 582 1405 pd analyze;
#X obj 387 933 hsl 128 34 0 0.12 0 1 empty empty empty -2 -8 0 10 -262144
-1 -1 2743 1;
#X obj 597 1486 s~ OIe;
#X obj 647 1486 s~ OId;
#X obj 1076 189 r~ OIe;
#X obj 1165 170 r~ OId;
#X obj 1019 891 line;
#X msg 1036 865 \$1 1111;
#X obj 432 900 hsl 128 15 0 0.2 0 1 empty empty empty -2 -8 0 10 -262144
-1 -1 1646 1;
#X obj 555 875 * 1.5;
#X obj 1119 242 *~ 0.2;
#X obj 778 277 loadbang;
#X msg 778 302 \; pd dsp 1 \;;
#X obj 257 1069 hsl 128 34 0 0.1 0 1 empty empty empty -2 -8 0 10 -262144
-1 -1 11000 1;
#X obj -44 1481 inlet;
#X obj 429 1123 hsl 128 55 0 0.2 0 1 empty empty empty -2 -8 0 10 -262144
-1 -1 5500 1;
#X obj 429 1080 hsl 128 34 0 0.1 0 1 empty empty empty -2 -8 0 10 -262144
-1 -1 11000 1;
#X obj 319 -809 bng 83 250 50 1 empty empty empty 17 7 0 10 -262144
-1 -1;
#X obj 289 -651 hradio 15 1 1 13 empty empty empty 0 -8 0 10 -262144
-1 -1 1;
#X obj 297 -714 bng 15 250 50 0 empty empty empty 17 7 0 10 -262144
-1 -1;
#X obj 300 -677 counter 5;
#X obj 286 -1063 loadbang;
#X obj 290 -1027 metro 1000;
#X obj 291 -974 counter 59;
#X obj 287 -944 sel 0;
#X obj 292 -999 bng 15 250 50 0 empty empty empty 17 7 0 10 -262144
-1 -1;
#X obj 254 -861 sel 0;
#X obj 259 -916 bng 15 250 50 0 empty empty empty 17 7 0 10 -262144
-1 -1;
#X obj 259 -892 counter 12;
#X obj 305 -620 sel 5;
#X msg 293 -587 0;
#X msg 329 -588 1;
#X obj 612 743 *~;
#X obj 667 707 tgl 34 0 empty empty empty 17 7 0 10 -262144 -1 -1 0
1;
#X obj 575 823 sel 11 7 2;
#X msg 649 806 0;
#X obj 2114 791 nbx 3 83 -1e+37 1e+37 0 0 empty empty empty 0 -8 0
166 -262144 -1 -1 0 256 0;
#X obj 329 460 *~;
#X obj 366 -926 s realclockminsbased;
#X obj 1575 577 *~ 0.1;
#X obj 1626 591 *~ 0.1;
#X obj 1804 377 phasor~;
#X obj 1069 834 / 2;
#X obj 2467 581 -~ 19;
#X obj 2469 655 *~;
#X obj 2480 634 hsl 128 15 0 1 0 1 empty empty empty -2 -8 0 10 -262144
-1 -1 400 1;
#X obj 2500 710 line~;
#X obj 2489 731 *~;
#X msg 2513 677 \$1 50;
#X obj 2525 743 tgl 34 0 empty empty empty 17 7 0 10 -262144 -1 -1
0 1;
#X obj 2467 555 *~ 20;
#X obj 2465 526 phasor~;
#X obj 2237 726 *~ 1;
#X obj 2511 371 clip~ 0 1;
#X obj 2512 346 -~ 19;
#X obj 2514 420 *~;
#X obj 2525 399 hsl 128 15 0 1 0 1 empty empty empty -2 -8 0 10 -262144
-1 -1 162 1;
#X obj 2545 475 line~;
#X obj 2534 496 *~;
#X msg 2558 442 \$1 50;
#X obj 2576 514 tgl 34 0 empty empty empty 17 7 0 10 -262144 -1 -1
0 1;
#X obj 2512 320 *~ 20;
#X obj 2510 291 phasor~;
#X obj 2466 606 clip~ 0 1;
#X obj 2377 364 / 4;
#X obj 2380 624 *~ 2;
#X obj 1606 641 *~ 0.1;
#X obj 1142 411 *~ 0.02;
#X obj 560 631 hsl 128 15 0 0.1 0 1 empty empty empty -2 -8 0 10 -262144
-1 -1 0 1;
#X obj 638 541 - 0.1;
#X obj 582 1436 *~;
#X obj 530 1458 tgl 34 0 empty empty empty 17 7 0 10 -262144 -1 -1
0 1;
#X obj 653 1434 *~;
#X obj 682 1445 tgl 34 0 empty empty empty 17 7 0 10 -262144 -1 -1
0 1;
#X obj 555 757 tgl 34 0 empty empty empty 17 7 0 10 -262144 -1 -1 0
1;
#X obj 444 719 spigot;
#X obj 1470 823 tgl 34 0 empty empty empty 17 7 0 10 -262144 -1 -1
1 1;
#X obj 1129 1171 *~;
#X obj 1143 1149 line~;
#X msg 1162 1123 \$1 83;
#X obj 1170 1084 tgl 34 0 empty empty empty 17 7 0 10 -262144 -1 -1
0 1;
#X obj 1967 1076 dac~ 1;
#X obj 2024 1080 dac~ 2;
#X obj 1989 1107 dac~ 3;
#X obj 2046 1111 dac~ 4;
#X obj 2001 1147 dac~ 5;
#X obj 2058 1151 dac~ 6;
#X obj 881 -450 r option;
#X obj 819 -437 spigot;
#X obj 987 -473 r option;
#X obj 940 -461 spigot;
#X obj 1099 -472 r option;
#X obj 1052 -460 spigot;
#X obj 1217 -475 r option;
#X obj 1170 -463 spigot;
#X obj 1326 -468 r option;
#X obj 1279 -456 spigot;
#X obj 1442 -480 r option;
#X obj 1395 -468 spigot;
#X obj 1470 -523 s option;
#X obj 1472 -547 tgl 15 0 empty empty empty 17 7 0 10 -262144 -1 -1
0 1;
#X connect 1 0 4 0;
#X connect 2 0 1 0;
#X connect 2 1 4 1;
#X connect 3 0 8 0;
#X connect 3 0 116 0;
#X connect 4 0 5 0;
#X connect 5 0 11 0;
#X connect 6 0 7 0;
#X connect 7 0 3 0;
#X connect 8 0 2 0;
#X connect 9 0 6 0;
#X connect 10 0 6 1;
#X connect 11 0 12 0;
#X connect 12 0 14 0;
#X connect 13 0 12 1;
#X connect 15 0 17 0;
#X connect 16 0 45 0;
#X connect 16 0 45 1;
#X connect 17 0 10 0;
#X connect 18 0 17 1;
#X connect 19 0 22 0;
#X connect 20 0 19 0;
#X connect 20 1 22 1;
#X connect 21 0 25 0;
#X connect 21 0 77 0;
#X connect 21 0 82 0;
#X connect 22 0 23 0;
#X connect 23 0 30 0;
#X connect 23 0 43 0;
#X connect 24 0 36 0;
#X connect 24 0 121 0;
#X connect 25 0 20 0;
#X connect 25 0 144 0;
#X connect 26 0 142 0;
#X connect 26 0 355 0;
#X connect 27 0 142 1;
#X connect 28 0 139 0;
#X connect 29 0 143 0;
#X connect 29 0 501 0;
#X connect 29 0 579 0;
#X connect 31 0 32 0;
#X connect 32 0 27 0;
#X connect 33 0 32 1;
#X connect 35 0 45 0;
#X connect 35 0 45 1;
#X connect 36 0 37 0;
#X connect 36 1 38 0;
#X connect 36 2 39 0;
#X connect 36 3 40 0;
#X connect 36 4 41 0;
#X connect 37 0 21 0;
#X connect 38 0 21 0;
#X connect 39 0 21 0;
#X connect 40 0 21 0;
#X connect 41 0 21 0;
#X connect 42 0 23 0;
#X connect 42 1 43 1;
#X connect 43 0 102 0;
#X connect 44 0 42 0;
#X connect 45 0 81 0;
#X connect 45 1 79 0;
#X connect 46 0 45 0;
#X connect 47 0 45 0;
#X connect 48 0 45 0;
#X connect 49 0 45 0;
#X connect 50 0 45 0;
#X connect 51 0 45 0;
#X connect 52 0 51 0;
#X connect 53 0 50 0;
#X connect 54 0 49 0;
#X connect 55 0 48 0;
#X connect 56 0 47 0;
#X connect 57 0 46 0;
#X connect 58 0 64 0;
#X connect 58 0 147 0;
#X connect 59 0 63 0;
#X connect 60 0 585 0;
#X connect 61 0 58 0;
#X connect 61 1 64 1;
#X connect 62 0 61 0;
#X connect 62 0 134 0;
#X connect 64 0 125 0;
#X connect 65 0 68 0;
#X connect 66 0 65 0;
#X connect 66 1 68 1;
#X connect 67 0 70 0;
#X connect 67 0 145 0;
#X connect 68 0 58 0;
#X connect 69 0 67 0;
#X connect 70 0 66 0;
#X connect 71 0 69 0;
#X connect 72 0 71 0;
#X connect 73 0 71 1;
#X connect 74 0 75 0;
#X connect 75 0 73 0;
#X connect 76 0 75 1;
#X connect 77 0 62 0;
#X connect 78 0 77 1;
#X connect 79 0 592 0;
#X connect 79 0 594 0;
#X connect 79 0 596 0;
#X connect 80 0 79 1;
#X connect 80 0 81 1;
#X connect 81 0 510 0;
#X connect 81 0 591 0;
#X connect 81 0 593 0;
#X connect 81 0 595 0;
#X connect 82 0 29 0;
#X connect 84 0 28 1;
#X connect 85 0 88 0;
#X connect 86 0 85 0;
#X connect 86 1 88 1;
#X connect 87 0 100 0;
#X connect 87 0 98 0;
#X connect 88 0 89 0;
#X connect 89 0 95 0;
#X connect 90 0 87 0;
#X connect 91 0 87 0;
#X connect 92 0 87 0;
#X connect 93 0 87 0;
#X connect 94 0 87 0;
#X connect 97 0 73 0;
#X connect 98 0 86 0;
#X connect 99 0 87 0;
#X connect 101 0 62 0;
#X connect 103 0 105 0;
#X connect 104 0 103 0;
#X connect 104 1 105 1;
#X connect 105 0 106 0;
#X connect 106 0 111 0;
#X connect 107 0 45 0;
#X connect 107 0 45 1;
#X connect 108 0 137 0;
#X connect 109 0 108 1;
#X connect 111 0 108 0;
#X connect 112 0 104 0;
#X connect 113 0 112 0;
#X connect 113 0 508 0;
#X connect 113 0 44 0;
#X connect 114 0 62 0;
#X connect 115 0 114 1;
#X connect 117 0 114 0;
#X connect 118 0 119 0;
#X connect 118 1 120 0;
#X connect 119 0 115 0;
#X connect 120 0 115 0;
#X connect 122 0 118 0;
#X connect 122 0 123 0;
#X connect 124 0 476 0;
#X connect 125 0 59 0;
#X connect 125 0 258 0;
#X connect 126 0 127 1;
#X connect 127 0 45 1;
#X connect 127 0 45 0;
#X connect 128 0 126 1;
#X connect 129 0 126 2;
#X connect 130 0 126 0;
#X connect 131 0 127 0;
#X connect 133 0 130 0;
#X connect 135 0 128 0;
#X connect 137 0 110 0;
#X connect 138 0 137 1;
#X connect 139 0 34 0;
#X connect 140 0 139 1;
#X connect 141 0 251 0;
#X connect 142 0 24 0;
#X connect 143 0 84 0;
#X connect 143 0 310 0;
#X connect 144 0 28 0;
#X connect 146 0 130 0;
#X connect 148 0 129 0;
#X connect 149 0 91 0;
#X connect 149 1 94 0;
#X connect 149 2 91 0;
#X connect 150 0 152 0;
#X connect 151 0 150 0;
#X connect 151 1 152 1;
#X connect 152 0 153 0;
#X connect 153 0 154 0;
#X connect 155 0 151 0;
#X connect 156 0 157 1;
#X connect 157 0 179 0;
#X connect 158 0 239 0;
#X connect 159 0 166 0;
#X connect 159 0 98 0;
#X connect 160 0 159 0;
#X connect 161 0 159 0;
#X connect 162 0 159 0;
#X connect 163 0 159 0;
#X connect 164 0 159 0;
#X connect 165 0 159 0;
#X connect 167 0 174 0;
#X connect 167 0 98 0;
#X connect 168 0 167 0;
#X connect 169 0 167 0;
#X connect 170 0 167 0;
#X connect 171 0 167 0;
#X connect 172 0 167 0;
#X connect 173 0 167 0;
#X connect 175 0 173 0;
#X connect 175 1 168 0;
#X connect 175 2 170 0;
#X connect 175 3 172 0;
#X connect 175 4 169 0;
#X connect 175 5 171 0;
#X connect 176 0 175 0;
#X connect 177 0 176 0;
#X connect 178 0 164 0;
#X connect 178 1 160 0;
#X connect 178 2 162 0;
#X connect 178 3 160 0;
#X connect 178 5 163 0;
#X connect 178 7 177 0;
#X connect 179 0 149 0;
#X connect 179 0 158 0;
#X connect 179 0 178 0;
#X connect 179 0 180 0;
#X connect 179 0 242 0;
#X connect 180 0 181 0;
#X connect 181 0 231 0;
#X connect 182 0 184 0;
#X connect 183 0 182 0;
#X connect 183 1 184 1;
#X connect 184 0 227 0;
#X connect 184 0 455 0;
#X connect 185 0 183 0;
#X connect 186 0 189 0;
#X connect 187 0 191 0;
#X connect 188 0 186 1;
#X connect 189 0 454 0;
#X connect 189 0 587 0;
#X connect 190 0 189 1;
#X connect 191 0 188 0;
#X connect 192 0 186 0;
#X connect 194 0 206 0;
#X connect 194 0 251 0;
#X connect 195 0 185 0;
#X connect 195 0 544 0;
#X connect 196 0 197 0;
#X connect 196 0 209 0;
#X connect 197 0 198 0;
#X connect 197 1 199 0;
#X connect 197 2 200 0;
#X connect 197 3 205 0;
#X connect 197 4 202 0;
#X connect 198 0 195 0;
#X connect 199 0 195 0;
#X connect 200 0 195 0;
#X connect 201 0 195 0;
#X connect 202 0 195 0;
#X connect 203 0 204 0;
#X connect 204 0 196 0;
#X connect 205 0 183 0;
#X connect 206 0 127 0;
#X connect 207 0 232 0;
#X connect 208 0 207 0;
#X connect 210 0 212 0;
#X connect 211 0 210 0;
#X connect 211 1 212 1;
#X connect 212 0 213 0;
#X connect 213 0 551 0;
#X connect 213 0 552 0;
#X connect 213 0 574 0;
#X connect 214 0 215 0;
#X connect 214 0 256 0;
#X connect 215 0 217 0;
#X connect 215 1 225 1;
#X connect 216 0 211 0;
#X connect 217 0 225 0;
#X connect 218 0 217 0;
#X connect 219 0 218 0;
#X connect 219 0 226 0;
#X connect 220 0 219 0;
#X connect 221 0 219 0;
#X connect 222 0 219 0;
#X connect 223 0 219 0;
#X connect 224 0 219 0;
#X connect 225 0 216 0;
#X connect 226 0 217 0;
#X connect 227 0 354 0;
#X connect 228 0 227 0;
#X connect 228 1 354 1;
#X connect 229 0 228 0;
#X connect 230 0 192 0;
#X connect 231 0 546 0;
#X connect 232 0 279 0;
#X connect 233 0 232 1;
#X connect 233 0 555 0;
#X connect 234 0 236 0;
#X connect 235 0 234 0;
#X connect 236 0 237 0;
#X connect 236 1 238 0;
#X connect 237 0 52 0;
#X connect 238 0 52 0;
#X connect 239 0 235 0;
#X connect 240 0 243 0;
#X connect 241 0 240 0;
#X connect 243 0 219 0;
#X connect 244 0 243 1;
#X connect 245 0 246 0;
#X connect 245 1 247 0;
#X connect 246 0 244 0;
#X connect 247 0 244 0;
#X connect 248 0 249 0;
#X connect 249 0 250 0;
#X connect 250 0 245 0;
#X connect 251 0 45 0;
#X connect 251 0 45 1;
#X connect 252 0 253 0;
#X connect 253 0 459 0;
#X connect 254 0 252 0;
#X connect 254 1 252 0;
#X connect 254 2 252 0;
#X connect 254 3 252 0;
#X connect 254 4 252 0;
#X connect 254 5 252 0;
#X connect 255 0 254 0;
#X connect 257 0 214 0;
#X connect 257 0 517 0;
#X connect 258 0 542 0;
#X connect 259 0 258 1;
#X connect 260 0 262 0;
#X connect 261 0 260 0;
#X connect 261 1 262 1;
#X connect 262 0 263 0;
#X connect 263 0 265 0;
#X connect 264 0 261 0;
#X connect 264 0 266 0;
#X connect 265 0 1 0;
#X connect 267 0 261 0;
#X connect 268 0 276 1;
#X connect 269 0 352 0;
#X connect 270 0 81 0;
#X connect 270 0 79 0;
#X connect 270 1 275 0;
#X connect 271 0 45 0;
#X connect 271 0 45 1;
#X connect 271 1 273 0;
#X connect 272 0 45 0;
#X connect 272 0 45 1;
#X connect 272 1 274 0;
#X connect 273 0 543 0;
#X connect 274 0 543 0;
#X connect 275 0 543 0;
#X connect 276 0 45 0;
#X connect 276 0 45 1;
#X connect 276 1 277 0;
#X connect 277 0 360 0;
#X connect 278 0 279 1;
#X connect 279 0 492 0;
#X connect 279 0 576 0;
#X connect 280 0 278 0;
#X connect 281 0 282 1;
#X connect 281 0 282 0;
#X connect 282 0 45 0;
#X connect 282 1 45 1;
#X connect 283 0 284 1;
#X connect 283 0 284 0;
#X connect 284 0 45 0;
#X connect 284 1 45 1;
#X connect 285 0 286 1;
#X connect 285 0 286 0;
#X connect 286 0 81 0;
#X connect 286 0 577 0;
#X connect 286 1 79 0;
#X connect 286 1 577 0;
#X connect 287 0 314 1;
#X connect 287 0 314 0;
#X connect 288 0 280 0;
#X connect 288 0 559 0;
#X connect 290 0 293 0;
#X connect 291 0 294 0;
#X connect 292 0 269 0;
#X connect 292 1 308 0;
#X connect 292 2 297 0;
#X connect 292 2 305 0;
#X connect 292 3 301 0;
#X connect 292 4 302 0;
#X connect 292 5 297 0;
#X connect 292 5 305 0;
#X connect 292 7 304 0;
#X connect 292 7 281 0;
#X connect 292 7 306 0;
#X connect 292 7 302 0;
#X connect 293 0 292 0;
#X connect 294 0 290 0;
#X connect 295 0 269 0;
#X connect 296 0 269 0;
#X connect 297 0 281 0;
#X connect 298 0 297 0;
#X connect 299 0 297 0;
#X connect 300 0 283 0;
#X connect 301 0 300 0;
#X connect 302 0 300 0;
#X connect 303 0 285 0;
#X connect 304 0 303 0;
#X connect 305 0 303 0;
#X connect 307 0 306 0;
#X connect 308 0 306 0;
#X connect 309 0 294 0;
#X connect 310 0 60 0;
#X connect 311 0 45 1;
#X connect 312 0 45 0;
#X connect 313 0 124 0;
#X connect 314 0 81 0;
#X connect 314 0 312 0;
#X connect 314 1 79 0;
#X connect 314 1 311 0;
#X connect 315 0 317 0;
#X connect 316 0 315 0;
#X connect 316 1 317 1;
#X connect 317 0 318 0;
#X connect 318 0 598 0;
#X connect 319 0 316 0;
#X connect 320 0 319 0;
#X connect 321 0 326 0;
#X connect 322 0 321 0;
#X connect 322 1 326 1;
#X connect 323 0 600 0;
#X connect 324 0 325 0;
#X connect 325 0 322 0;
#X connect 326 0 323 0;
#X connect 327 0 331 0;
#X connect 328 0 327 0;
#X connect 328 1 331 1;
#X connect 329 0 602 0;
#X connect 330 0 332 0;
#X connect 331 0 329 0;
#X connect 332 0 328 0;
#X connect 333 0 337 0;
#X connect 334 0 333 0;
#X connect 334 1 337 1;
#X connect 335 0 604 0;
#X connect 336 0 338 0;
#X connect 337 0 335 0;
#X connect 338 0 334 0;
#X connect 339 0 343 0;
#X connect 340 0 339 0;
#X connect 340 1 343 1;
#X connect 341 0 608 0;
#X connect 342 0 344 0;
#X connect 343 0 341 0;
#X connect 344 0 340 0;
#X connect 345 0 349 0;
#X connect 346 0 345 0;
#X connect 346 1 349 1;
#X connect 347 0 606 0;
#X connect 348 0 350 0;
#X connect 349 0 347 0;
#X connect 350 0 346 0;
#X connect 351 0 353 1;
#X connect 351 0 353 0;
#X connect 352 0 79 0;
#X connect 352 0 81 0;
#X connect 352 0 500 0;
#X connect 353 0 81 0;
#X connect 353 0 499 0;
#X connect 353 0 549 0;
#X connect 353 1 79 0;
#X connect 353 1 550 0;
#X connect 354 0 230 0;
#X connect 355 0 356 0;
#X connect 356 0 21 0;
#X connect 357 0 358 0;
#X connect 357 0 465 0;
#X connect 358 0 157 0;
#X connect 359 0 157 0;
#X connect 361 0 363 0;
#X connect 362 0 361 0;
#X connect 363 0 155 0;
#X connect 364 0 367 0;
#X connect 364 0 376 0;
#X connect 365 0 375 0;
#X connect 366 0 368 0;
#X connect 366 0 374 0;
#X connect 366 0 378 0;
#X connect 366 0 382 0;
#X connect 366 0 385 0;
#X connect 366 0 396 0;
#X connect 366 0 400 0;
#X connect 367 0 366 1;
#X connect 374 0 365 0;
#X connect 375 0 377 0;
#X connect 376 0 366 0;
#X connect 377 0 369 0;
#X connect 378 0 381 0;
#X connect 379 0 380 0;
#X connect 380 0 370 0;
#X connect 381 0 379 0;
#X connect 382 0 388 0;
#X connect 383 0 384 0;
#X connect 385 0 389 0;
#X connect 386 0 387 0;
#X connect 387 0 371 0;
#X connect 388 0 383 0;
#X connect 389 0 386 0;
#X connect 396 0 399 0;
#X connect 397 0 398 0;
#X connect 398 0 373 0;
#X connect 399 0 397 0;
#X connect 400 0 403 0;
#X connect 401 0 402 0;
#X connect 402 0 372 0;
#X connect 403 0 401 0;
#X connect 404 0 414 0;
#X connect 404 0 418 0;
#X connect 404 0 422 0;
#X connect 404 0 429 0;
#X connect 404 0 430 0;
#X connect 404 0 431 0;
#X connect 405 0 407 0;
#X connect 406 0 405 0;
#X connect 407 0 404 0;
#X connect 408 0 410 0;
#X connect 409 0 410 0;
#X connect 410 0 288 0;
#X connect 410 0 586 0;
#X connect 411 0 413 0;
#X connect 412 0 413 0;
#X connect 414 0 411 0;
#X connect 414 1 412 0;
#X connect 415 0 417 0;
#X connect 416 0 417 0;
#X connect 417 0 140 0;
#X connect 417 0 586 0;
#X connect 418 0 415 0;
#X connect 418 1 416 0;
#X connect 419 0 421 0;
#X connect 420 0 421 0;
#X connect 421 0 288 0;
#X connect 422 0 419 0;
#X connect 422 1 420 0;
#X connect 423 0 425 0;
#X connect 424 0 425 0;
#X connect 425 0 586 0;
#X connect 426 0 428 0;
#X connect 427 0 428 0;
#X connect 428 0 140 0;
#X connect 429 0 423 0;
#X connect 429 1 424 0;
#X connect 430 0 426 0;
#X connect 430 1 427 0;
#X connect 431 0 408 0;
#X connect 431 1 409 0;
#X connect 432 0 484 0;
#X connect 432 0 485 0;
#X connect 432 0 488 0;
#X connect 432 0 502 0;
#X connect 432 0 503 0;
#X connect 432 0 504 0;
#X connect 432 0 505 0;
#X connect 433 0 435 0;
#X connect 434 0 433 0;
#X connect 435 0 432 0;
#X connect 435 0 466 0;
#X connect 436 0 438 0;
#X connect 437 0 438 0;
#X connect 438 0 269 0;
#X connect 439 0 441 0;
#X connect 440 0 441 0;
#X connect 441 0 351 0;
#X connect 442 0 444 0;
#X connect 443 0 444 0;
#X connect 444 0 281 0;
#X connect 445 0 447 0;
#X connect 446 0 447 0;
#X connect 447 0 285 0;
#X connect 448 0 450 0;
#X connect 449 0 450 0;
#X connect 450 0 287 0;
#X connect 451 0 453 0;
#X connect 452 0 453 0;
#X connect 453 0 283 0;
#X connect 454 0 193 0;
#X connect 455 0 461 0;
#X connect 456 0 455 0;
#X connect 456 1 461 1;
#X connect 457 0 456 0;
#X connect 458 0 192 0;
#X connect 459 0 229 0;
#X connect 459 1 457 0;
#X connect 460 0 459 1;
#X connect 461 0 458 0;
#X connect 462 0 463 0;
#X connect 462 0 187 0;
#X connect 462 0 496 0;
#X connect 464 0 462 0;
#X connect 465 0 157 0;
#X connect 466 0 467 0;
#X connect 467 0 468 0;
#X connect 469 0 470 0;
#X connect 470 0 460 0;
#X connect 471 0 472 0;
#X connect 472 0 113 0;
#X connect 473 0 474 0;
#X connect 473 0 313 0;
#X connect 473 0 566 0;
#X connect 475 0 473 0;
#X connect 476 0 109 0;
#X connect 476 0 478 0;
#X connect 478 0 477 0;
#X connect 479 0 480 0;
#X connect 479 0 13 0;
#X connect 481 0 479 0;
#X connect 482 0 483 0;
#X connect 483 0 79 0;
#X connect 483 0 81 0;
#X connect 484 0 448 0;
#X connect 484 1 449 0;
#X connect 485 0 451 0;
#X connect 485 1 452 0;
#X connect 486 0 482 0;
#X connect 487 0 482 0;
#X connect 488 0 486 0;
#X connect 488 1 487 0;
#X connect 489 0 490 0;
#X connect 490 0 361 0;
#X connect 491 0 208 0;
#X connect 492 0 493 0;
#X connect 494 0 495 0;
#X connect 495 0 233 0;
#X connect 496 0 494 0;
#X connect 497 0 498 0;
#X connect 498 0 269 0;
#X connect 498 0 281 0;
#X connect 498 0 283 0;
#X connect 498 0 285 0;
#X connect 498 0 287 0;
#X connect 498 0 351 0;
#X connect 498 0 482 0;
#X connect 499 0 251 0;
#X connect 500 0 45 0;
#X connect 500 0 45 1;
#X connect 501 0 259 0;
#X connect 502 0 445 0;
#X connect 502 1 446 0;
#X connect 503 0 442 0;
#X connect 503 1 443 0;
#X connect 504 0 439 0;
#X connect 504 1 440 0;
#X connect 505 0 436 0;
#X connect 505 1 437 0;
#X connect 506 0 69 1;
#X connect 507 0 69 1;
#X connect 508 0 509 0;
#X connect 509 0 69 1;
#X connect 510 0 580 0;
#X connect 510 1 582 0;
#X connect 511 0 510 1;
#X connect 514 0 45 0;
#X connect 514 0 520 0;
#X connect 515 0 45 1;
#X connect 515 0 520 0;
#X connect 516 0 519 0;
#X connect 517 0 516 0;
#X connect 518 0 511 0;
#X connect 519 0 518 0;
#X connect 520 0 251 0;
#X connect 521 0 522 0;
#X connect 523 0 80 0;
#X connect 524 0 80 0;
#X connect 526 0 525 0;
#X connect 527 0 529 0;
#X connect 528 0 539 0;
#X connect 529 0 530 0;
#X connect 530 0 528 0;
#X connect 531 0 532 0;
#X connect 532 0 535 0;
#X connect 533 0 534 0;
#X connect 533 0 548 0;
#X connect 534 0 537 0;
#X connect 535 0 533 0;
#X connect 536 0 527 0;
#X connect 537 0 538 0;
#X connect 538 0 536 0;
#X connect 539 0 540 0;
#X connect 539 1 541 0;
#X connect 540 0 465 0;
#X connect 541 0 465 0;
#X connect 542 0 132 0;
#X connect 543 0 542 1;
#X connect 543 0 583 0;
#X connect 543 0 584 0;
#X connect 544 3 545 0;
#X connect 545 0 584 0;
#X connect 549 0 45 0;
#X connect 550 0 45 1;
#X connect 551 0 491 0;
#X connect 552 0 561 0;
#X connect 553 0 573 0;
#X connect 554 0 557 0;
#X connect 555 0 554 1;
#X connect 556 0 557 1;
#X connect 557 0 562 0;
#X connect 558 0 556 0;
#X connect 559 0 558 0;
#X connect 559 0 570 0;
#X connect 560 0 553 0;
#X connect 561 0 560 0;
#X connect 562 0 576 0;
#X connect 563 0 565 0;
#X connect 564 0 563 0;
#X connect 565 0 568 0;
#X connect 566 0 565 1;
#X connect 567 0 568 1;
#X connect 568 0 575 0;
#X connect 569 0 567 0;
#X connect 570 0 569 0;
#X connect 571 0 564 0;
#X connect 572 0 571 0;
#X connect 573 0 554 0;
#X connect 574 0 572 0;
#X connect 575 0 576 0;
#X connect 576 0 45 1;
#X connect 576 0 45 0;
#X connect 577 0 251 0;
#X connect 578 0 59 1;
#X connect 579 0 578 0;
#X connect 580 0 512 0;
#X connect 581 0 580 1;
#X connect 582 0 513 0;
#X connect 583 0 582 1;
#X connect 583 0 581 0;
#X connect 584 0 542 1;
#X connect 584 0 585 1;
#X connect 584 0 590 0;
#X connect 585 0 59 1;
#X connect 586 0 454 1;
#X connect 587 0 193 0;
#X connect 588 0 587 1;
#X connect 589 0 588 0;
#X connect 590 0 589 0;
#X connect 597 0 598 1;
#X connect 598 0 390 0;
#X connect 599 0 600 1;
#X connect 600 0 391 0;
#X connect 601 0 602 1;
#X connect 602 0 392 0;
#X connect 603 0 604 1;
#X connect 604 0 393 0;
#X connect 605 0 606 1;
#X connect 606 0 395 0;
#X connect 607 0 608 1;
#X connect 608 0 394 0;
#X connect 610 0 609 0;
#X restore 151 435 pd 27.7hz.ms~~~~;
#X msg 296 322 BestResults 0.15;
#X connect 1 0 3 0;
#X connect 2 0 1 0;
#X connect 3 0 9 0;
